<?xml version="1.0" encoding="utf-8"?>
<!-- Generator: Adobe Illustrator 22.1.0, SVG Export Plug-In . SVG Version: 6.00 Build 0)  -->
<svg version="1.1" baseProfile="tiny" id="Layer_1" xmlns="http://www.w3.org/2000/svg" xmlns:xlink="http://www.w3.org/1999/xlink"
	 x="0px" y="0px" viewBox="0 0 600 600" xml:space="preserve">
<metadata><?xpacket begin="﻿" id="W5M0MpCehiHzreSzNTczkc9d"?>
<x:xmpmeta xmlns:x="adobe:ns:meta/" x:xmptk="Adobe XMP Core 5.6-c143 79.161356, 2017/09/07-01:11:22        ">
   <rdf:RDF xmlns:rdf="http://www.w3.org/1999/02/22-rdf-syntax-ns#">
      <rdf:Description rdf:about=""/>
   </rdf:RDF>
</x:xmpmeta>
                                                                                                    
                                                                                                    
                                                                                                    
                                                                                                    
                                                                                                    
                                                                                                    
                                                                                                    
                                                                                                    
                                                                                                    
                                                                                                    
                                                                                                    
                                                                                                    
                                                                                                    
                                                                                                    
                                                                                                    
                                                                                                    
                                                                                                    
                                                                                                    
                                                                                                    
                                                                                                    
                           
<?xpacket end="w"?></metadata>
<g>
	<polygon fill="#FFFFFF" points="589.6,277.3 589.6,277.4 589.6,277.5 	"/>
	<path fill="#FFFFFF" d="M172.8,62.1c2.7-1.1,5.4-2.2,8.4-3.4c9.7-4.7,19.8-8.7,29.1-12.7c1.4-0.7,1.6-1.1,0.4-1.1
		c-5.3,1.3-5.1,0.6-1.2-1.5l-5.2,1.8c-5.1,1.3-10.7,3.6-14.7,5.9c-11.6,6.6,0.5,0.7,2.1,0.4c0,0,0,0.1-0.8,0.4
		c-6.3,3-12.3,4.1-19.7,8.3c-1.8,1.1-3.6,2.2-5.3,3.2C161.8,67.5,169.7,62.9,172.8,62.1z"/>
	<polygon fill="#FFFFFF" points="542.3,146.2 542.3,146.2 542.4,146.3 	"/>
	<polygon fill="#FFFFFF" points="549.8,165.4 549.8,165.5 549.8,165.5 	"/>
	<path fill="#FFFFFF" d="M15,280.8c-1.1,2.5-2.1,9.3-1.8,11.3c0.2,1.4,0.5-1.8,0.8-3.1C14,286.2,14.5,283.5,15,280.8z"/>
	<polygon fill="#FFFFFF" points="296.2,527.7 296.1,527.7 296,527.7 	"/>
	<path fill="#FFFFFF" d="M389,541.4c-1,0.3-1.5,0.5-1.7,0.7l2.6-0.7H389z"/>
	<polygon fill="#FFFFFF" points="387.3,542.1 386.9,542.2 387,542.2 387.1,542.2 	"/>
	<polygon fill="#FFFFFF" points="20.7,251.4 20.3,252.3 19.9,255.1 19.9,255 	"/>
	<polygon fill="#FFFFFF" points="317.6,35.8 317.4,35.8 317.3,35.8 	"/>
	<path fill="#FFFFFF" d="M251.3,35.6c5.7-1.7,11.9-2.4,18.4-3.2c-2.3-0.4-4.7-0.1-7,0.1c-13.4,1.8-27.1,4.7-40.4,8.3l-2.1,1.7
		c4.6-1.4,9.2-2.6,13.8-3.5C240,37.4,245.7,36.4,251.3,35.6z"/>
	<polygon fill="#FFFFFF" points="226.1,50.7 228.3,49.7 226,50.3 223.7,51.2 	"/>
	<path fill="#FFFFFF" d="M314,572.4c-0.3,0.1,0.2,0.3,1,0.4c0.5,0,0.8-0.1,1.2-0.2c-0.2-0.2-0.8-0.3-1.6-0.3L314,572.4z"/>
	<path fill="#FFFFFF" d="M325.1,516.9c1.6,0.4,3.3,0.3,5,0.3c9.6-0.7,19.5-2.1,29.1-4l1.5-1.1c-3.3,0.8-6.7,1.4-10,1.8
		c-4.2,0.9-8.3,1.3-12.4,1.7C334.1,516.4,329.7,516.6,325.1,516.9z"/>
	<polygon fill="#FFFFFF" points="356.9,505.9 355.3,506.5 357,506.2 358.6,505.6 	"/>
</g>
<g>
	<polygon fill="none" points="551.5,191.8 551.5,191.8 551.4,191.7 551.5,191.8 	"/>
	<polygon fill="none" points="543,396.2 543,396.4 543.1,396.1 	"/>
	<polygon fill="none" points="552.3,294.5 552.3,294.5 552.2,294.3 552.3,294.7 	"/>
	<path fill="none" d="M521.7,143.9l-0.2,0l0.5,0.6C521.9,144.3,521.7,143.9,521.7,143.9z"/>
	<path fill="none" d="M382.1,506.7c-0.6,0.2-0.6,0.2-0.6,0.2c0.4-0.1,2.1-0.6,3.4-1.1l0,0C383.9,506.1,383,506.3,382.1,506.7z"/>
	<polygon fill="none" points="477.9,114.9 477.9,114.9 478,115 	"/>
	<polygon fill="none" points="552.2,294.3 552.2,294.3 552.2,294.3 	"/>
	<polygon fill="none" points="450.9,452.5 449.3,454.1 450.6,452.9 	"/>
	<polygon fill="none" points="482.5,427.1 482.4,427.2 482.4,427.2 	"/>
	<path fill="none" d="M308.2,569.8l0.4-0.1l-1.3,0.2l0,0C307.6,569.9,308.2,569.8,308.2,569.8z"/>
	<path fill="none" d="M302.6,522.8c0.3,0.1,0.9,0.3,0.9,0.3L302.6,522.8L302.6,522.8z"/>
	<polygon fill="none" points="56.4,443.9 56.4,444 56.4,444 	"/>
	<path fill="none" d="M298.6,524.2c0.3,0.1,1,0.3,1,0.3s-0.5-0.2-0.8-0.3H298.6z"/>
	<path fill="none" d="M512.4,115.9C512.3,115.9,512.3,115.9,512.4,115.9C512.3,115.9,512.3,115.9,512.4,115.9L512.4,115.9z"/>
	<polygon fill="none" points="99.1,134.2 101.3,131.8 101.4,131.8 99.3,133.7 	"/>
	<path fill="none" d="M386.2,544c-1.2,0.1-1.9,0.2-3,0.3c0.4,0.1,0,0.4-0.2,0.7C384.2,544.6,384.5,544.5,386.2,544z"/>
	<polygon fill="none" points="448.6,458.9 448.1,460.3 448.4,459.9 	"/>
	<path fill="none" d="M128.4,514.2l-1-0.8c-0.2-0.3-0.3-0.4-0.3-0.4c0.1,0.4-0.1,0.7,0.4,1.4l0.6,0.5l0.3,0
		c-0.1-0.3,0.2-0.6,0.2-0.6L128.4,514.2z"/>
	<path fill="none" d="M306.9,569.9l-0.6,0.1C306.6,570,307,569.9,306.9,569.9L306.9,569.9z"/>
	<polygon fill="none" points="115.1,115.9 115.3,115.7 115.1,115.9 	"/>
	<path fill="none" d="M519.8,123.1c0-0.3,0.2-0.4,0.2-0.4C519.8,122.7,519.7,122.9,519.8,123.1z"/>
	<path fill="none" d="M519.9,123.9C519.9,123.9,519.9,123.8,519.9,123.9C519.9,123.8,519.9,123.8,519.9,123.9L519.9,123.9z"/>
	<polygon fill="none" points="302.4,522.1 303,522.3 302.6,522.1 	"/>
	<polygon fill="none" points="438.8,464.7 438.6,464.8 438.7,464.7 	"/>
	<polygon fill="none" points="544.2,156.4 544.2,156.4 544.2,156.4 	"/>
	<path fill="none" d="M294.2,517.1l-1-0.3c-1.8-0.1-3.6-0.6-5.4-0.7c0,0,0.1,0,0.1,0c2.2,0.3,4.5,1.3,6.9,1.8l-0.3-0.4
		C294.1,517.3,294.4,517.3,294.2,517.1z"/>
	<polygon fill="none" points="562.2,193.3 562.2,193.2 562.2,193.2 562.2,193.2 	"/>
	<polygon fill="none" points="544.2,156.4 544.3,156.6 544.2,156.4 	"/>
	<polygon fill="none" points="439.1,472.2 439.2,471.9 439.1,472.2 	"/>
	<path fill="none" d="M249.7,498.4c0-0.1-0.1-0.2-0.1-0.3c-3.1-0.9-6.1-2.1-9.2-3.1c0.8,0.4,1.8,1.1,2.6,1.3
		c2.2,0.6,4.1,1.1,7.6,3.5l0-0.2l-0.3-0.3L249.7,498.4z"/>
	<path fill="none" d="M383.9,498.9l3.6-0.3c0.7,0,1.3,0.1,1.8,0.1c0.5,0.1,0.9,0.2,1.2,0.3l0,0.1c3.8-0.3,7.1-0.2,10.7-0.7l2.6-0.6
		l0.2,0l1-0.3c1.6-0.6,3.3-1.4,4.8-1.8l0.6-0.1l0.6-0.3c4.2-1.7,9-3.4,12.9-5.7c1.9-0.9,4.2-2.8,6.1-3.5l-0.2,0.1
		c0.4-0.1,0.3,0.2,0.3,0.2l0.4-0.3h0c2.6-1.8,5.3-3.7,7.9-5.1l1.9-1.4l5.1-4.8c3-2.2,6.2-4.9,9.4-7.8l1.2-1.3l2.3-2.5
		c7.4-7.8,14.6-17.4,20.4-27.4c1.9-3,2.9-5.4,3.4-7.3c-2.4,3.9-4.8,7.9-7.2,12c0.9-2.2-6.8,10.7-1.3,0.3c0.3-0.5,0.3-1.1,0.3-1.1
		c-3.4,4.3-3.1,0.7-7.3,6.6c-0.3,0.3-0.7,0.4-0.7,0.4l-10.2,13l-2.1,1.9l-1.5,1.8l-0.2,0.1h0.3c-1.1,1.2-2.2,2.4-3.5,3.3l-1.4,1.3
		c-3.2,2.3-6.2,5.3-9.2,7.9l-1.2,1.1c-1,0.7-1.9,1.1-2.7,1.5l0.1-0.1c-2.7,1.1-6,4-8.7,5.1c-1.5,0.6-3.2,1.4-2.8,0.6
		c0.3-0.9,1.8-1.8,3.7-2.9c1.9-1.6,1.3-2.3,5-4.6c2.3-1.5,4.2-3.4,6.3-5.2c0.5-0.6,1-1.2,1.6-1.9l3.4-3.2l1.9-1.6l-0.5-0.3l-0.4,0.3
		c0.7-2.1-1.6-0.8-5.3,1.9c0.7-0.6,1.3-1.3,2-2c-3,2.6-6.1,4.8-9.3,7.1c-4.4,2.6-9,5-12.6,8.6c-5.1,2.8-10.4,6.1-15.2,7.6l-1.8,0.8
		c-1.8,1.2-3.7,2.2-5.6,3.2l-12,5.7l-4.5,1.8l-1.1,0.4c0.9-0.3,2.1-0.5,3.5-0.8L383.9,498.9z"/>
	<polygon fill="none" points="410.1,62.1 409.4,61.8 410.1,62.2 	"/>
	<polygon fill="none" points="254.3,521.6 254.4,521.6 254.1,521.5 	"/>
	<path fill="none" d="M280.6,511.9l-1.3-0.4c-2.8,0-6.9-0.7-12.2-3.4c-1.4-0.7-3.6-1.6-4-1.5c-2.8,0.5-8.9-3.8-12.3-4.5
		c1,1.3,3.1,2.2,5.1,3.3c4.2,2.3,9.5,4.4,13.4,5.4c0.4,0.1,0.9,0.3,1.3,0.4c1.6,0.4,3.2,0.4,4.7,1.1c0.4,0.2,1.5-0.1,2.5,0
		c-0.1,0-0.1,0-0.2,0l0.2,0c0,0,0,0,0,0c2.6,0.8,4.8,1,6.9,1c-0.5-0.2-0.9-0.3-1.5-0.5L280.6,511.9z"/>
	<path fill="#FFFFFF" d="M509.8,112.2c1.5,1.8,1.7,2.4,2.5,3.6C512,115,511.6,114.2,509.8,112.2z"/>
	<path fill="#FFFFFF" d="M336.8,34.8c-0.1,0-0.2,0-0.2,0c0,0,0,0,0,0L336.8,34.8z"/>
	<path fill="#FFFFFF" d="M277.5,512.1c0.1,0,0.1,0,0.2,0c0,0,0,0,0,0L277.5,512.1z"/>
	<path fill="#FFFFFF" d="M589.6,277.4c-1-6.1-1.9-11.7-2.8-17.6l-1.4-6.9c-1.1-5.2-2.5-9.7-3.9-14.4c-0.2-0.5-0.5-1.3-0.7-1.8
		c-2.1-7.8-4.3-14.7-7.1-22.1l-1.1-2.8c-1.9-5.5-4.1-10-6.2-14.9c-2.5-4.9-2-2.9-1.5-0.6l-0.4-0.9c-0.5-1-0.6-0.9-1-1.4
		c-5-10.9-11.4-20.8-13.7-28.5c0,0-0.3-0.5-0.7-1.3c-0.4-0.8-0.8-1.4-1.2-1.8l-0.1-0.1l0.8,0.9c0.1-0.3,0-0.8-0.1-1.5
		c-0.9-3.5,1-4.2-6.2-15.5l0,0l0,0l0,0l-6.5-9.6l-1.8-2.4c-6.2-8.9-12.8-16.6-19.4-22.6c-0.4-0.4-0.9-0.9-1.5-1.5
		c-1-0.8-1.8-1.4-2.4-1.9c-2.7-1.6-10.8-8.9-5.5-1.4c-3-2.9-8.9-11-8.5-7.6l9,8.7l4.2,4.3c1.7,2,2.1,2.8,2.5,3.6c0,0,0,0,0,0.1l0,0
		c0,0,0,0,0,0c-0.8-1.2-0.9-1.8-2.5-3.6l0.7,2l-2.3-2.3c-13.2-14-28.5-26.5-43.1-36.3c-15.4-9.4-31.1-19.7-47.3-25.5
		c-2.1-1.1-4.1-2-6.1-2.7c-6.3-2.7-12.4-4.9-18.9-6.8c-25.9-7.8-51.8-11.3-78.4-11l-3.2-0.6c-2.8-0.4-3.3-1.1-4.3-1.7l-4.9-0.1
		l-0.9-0.5c-2.3,0.1-4.5,0-6.3-0.3l-7.7,0.5c-5.7,0.7-11.3,1.4-17.4,2.2c-4.2,0.4-8.4,1.1-8.2,2.4c10.8-1.2,10.8-1.2,13.5,1.1
		c0,0.4,2,0.2,3.2,0.3l8.3-0.9l1.4,2.3c-0.8,0.3-0.8,0.6,0.2,0.7c1.8,0.4,8.1-0.7,7.3,0.2c-1.7,1.7,4.1,1,7.3,1.3l3.5-0.1
		c1.1,0.2,1.6,0.6,3.5,0.6c3.7,1.4-1.9,1.2-5.2,1.2c-4.2,0.1-7.9,0.1-5.3,1.3l-5.3,0.3c-5,0.3-8.8,1.3-13.2,2.1
		c-4.4,0.8-8.2,1.3-12.3,1.3c-2.2,0.1-4.2,0.4-6,0.9c-6,1.1-11.2,2.1-17.1,3.2c-7.7,0.4-15.4,2.9-22.9,5.9l-2.3,0.6l0.2-0.1
		c-2.2-1-7.1,0-14.4,3.3l-10.6,4.2l-6.2,2.9l-16.3,9c-2.6,1.5-5.1,3.2-7.5,5l-2.5,1.2c-6.6,2.6-13.8,7.6-20.7,12
		c-4.7,5.4-10.9,9.3-16.9,13.3c-4.7,3.7-9.3,7.5-13.6,11.8c-1,2-3.7,4.5-6.1,6.9c-6.2,7-12.9,14.6-19,22c-5,6-3.9,5.8-3.5,6.6
		c-9,10.6-16,22.9-23.3,34.3c-12.1,21.4-22.5,43.5-27.8,67.2c-2.8,9.8-3.9,20-5.8,29.7c0,0-0.3,0.3-0.6,0.6c-0.4,2.6-1,5.1-1.2,7.8
		c-0.2,2.1-0.4,4.2-0.8,5.6c-1.9,15.4-0.1,30.4,0.5,45.1c0.2,2.2,0.7,4.1,1.2,5.6c0.7,1.9,0.6,3.8,0.7,5.7c-0.3,5.7,3,21.8,5.3,30.1
		l4.9,16.3l0.6,0.3c0.8,1.4,1.3,2.9,1.4,4.5l0.7,2.3c3.8,10,7.9,19.3,12.6,28.4c0.3,1.3,1.2,2.8,1.9,4.3l1.2,2.2l1,1.3l0,0.5
		c0.7,1.1,1.2,1.7,0.6,0l0,0l0,0v0l0,0c1.7,2.4,4.2,5.8,6.1,8.5c3.2,3.9,5.2,8.8,8.3,12.5c0.9,1,2,2.6,2.4,2.3
		c0.4-0.3-1.3-2.5-1.4-3.2c2,1.3,4.9,6.8,6.6,6.8c1.1,1.5,2.1,2.7,3,3.2c1.6,2.3,3.2,4.7,5.1,6.8c1,0.7,2.2,2.2,3.2,3l0,0
		c1.3,1.6,2,3.6,4,4.8l0,0c1.6,2.8,4.8,5.5,6.4,8l7.8,7.7c6.2,6.1,13.7,12,18.6,13.4c6.1,3.8,8.7,2.9,12.2,3.6l-0.3-0.3
		c4,3.8,8.5,7.2,13.1,10.4c8.5,5.1,17.3,10.2,26,15.4c2.1,0.4,2.6-0.2,2.1-1.2c2.7,2.1,5.6,3.7,8.7,4.5c-0.3-0.6-1.5-1.3-2.2-2
		l2.5,1.5c0.5,0.1,0.6-0.1,0.2-0.5c0.1-0.6,0.6-1-1.1-2.4c5.3,2.1,11.7,4.8,17.6,7.2c17.9,7.6,26.2,9.3,43,11.7c2.4,0.1,5,1.2,7.5,2
		c1.1-1.2,8.2,1.2,11.7,0.9h0c2.2,1.4,5.7,2,9.4,2.6c8.2,0.8,16.7,2,25.5,2.4l0.1,0l-0.1-0.5c-5.1-2.5-4.8-2.7,5.6-2.3
		c3.7,0.1,7.7,0.6,10.5-0.1c2.1-1,6.1-1.4,11.9-1.1c4.1,0.3,8.2-0.1,12-0.1c4.2,0,6-0.6,8.8-1l0,0l0.4,0.2c1.6,0,3.1-0.1,4.2-0.3
		c2.2-0.3,2.8-1.3,5.8-1.5c6.5-0.4,9.4-1.4,11.9-2.6c1-0.5,3.2-0.8,5.5-1.3c1.8-0.4,3.9-1,3.9-1.4c-0.2-0.9-1.3-1.6,2.4-3l-2.8,0.1
		c-2,0.1-1.6-0.3-0.4-0.8c1.1-0.7,0.9-1.3,3.8-2l2.1-0.8h0l2-0.8l4.7-0.8h-0.1c2.4-1.1-0.5-0.9-2.9-0.8c-0.3-0.7-2.9-1.1,1.1-2.4
		c1.2-0.4,3.2-0.7,4.1-1.3c0.3-0.2,0.3-0.4,0.3-0.4c0.5-0.5-0.7-0.4-2.5,0c-0.6,0.2-0.8,0.2-1.4,0.4l-1.9,0.1l0.7-0.2
		c-1.4-0.1-3.2,0.2-5,0.4l-9,1.7l-0.3,0.4l-2.8,0.6l0.2,0c3.4-2.4,14.4-4,19.5-6.6c6.5-2.3,12.9-4.5,19.2-6.7
		c-0.4-0.6-2.3-0.2-4.8,0.7c-2.4,1.1-5.9,1.8-9.3,2.5c-1.8,0.4-2.6,0.3-2.9,0.1c-0.7-0.5,2.1-0.8,3.5-1.2c1.2-0.3,1.8-0.6,1.5-1
		l-10.7,2.6c-2.9,0.8-3.6,0.4-4,0l-7.9,0.6l-1.4,0.3c-2.8,1-6.9,1.4-10.3,2.1c-4.9,0.8-10.7,0.8-14.8,1.9l-2.2,0.2
		c-2.2,0-4.7,0.1-7.3,0.2l-17,0.2l-4.5-0.2c-7.9-0.5-15.4-1.2-22.7-2.7c-5.4-1.1-10.7-1.5-15.8-3.3l-1.6-0.4
		c-6.8-0.9-13.4-3.7-19.5-5.7c-0.8-0.5-2.1-1.2-3.5-1.7l-1.6-0.6l-1.1-0.7l-1.1-0.7c-0.3-0.3-0.7-0.6-0.7-0.6l-0.2-0.8l-0.6-0.5
		l1.5,0.4l1,0c0.5,0,1.1,0,0.4-0.6l0,0l2.2,1l0.8,0.1c-1.4-1.8-0.9-2.9,0.1-3.6c0.5-0.3,2.1-0.1,4.6,0.7c2.2,0.9,1,1,1,1.4
		c0,0.4,0.1,0.8,1.7,1.5c6.1,1.7,9.8,1.8,15.3,2.1c-2.1-0.6-3.2-0.9-4.4-1.2c-4.2-1.1-4.3-1.6-3.6-1.8l3,0.7c2-0.1,2.1-0.1,0.3-0.7
		c-3.8-1.1-4.4-2-1.7-1.6c3.9,0.2,7.1,0.1,13.1,1.6c-6-2.7-5.9-2.7-2.3-2.7c0.6,0,1,0.1,1.7,0.1l4.7,0.1c0.8,0.1,2.5,0.2,3.2,0.2
		c0.4,0,0.5-0.2,0.5-0.2l0.2,0.1l1.1,0.1l1.6-0.1l-0.1,0c-1-0.6-3.8-1.5-1-1.3c0.7-0.5,2.2-0.8,1.1-1.8c0,0-0.7-0.2-1-0.3h0.2
		c0.3,0.1,0.8,0.3,0.8,0.3l2.9,0.5l0.1,0.1c0.7-0.1,1.3-0.1,1.8-0.2l-0.1,0l-0.7-1.8c0,0-0.6-0.2-0.9-0.3h0.1l0.8,0.3l1.7-0.1l3,0.3
		l1.3-0.2c-0.8-0.3-1.9-0.6-3.2-0.8l0,0c-1-0.6,0.2-0.6,2.3-0.4c0.4-0.6,2.9-0.5,5.2-0.6c-0.7-0.6-1.9-1-4.5-1.2l3,0
		c4.1-0.3,8.1-0.5,12.5-0.8c3-0.1,6-0.4,5.9-1.3c-7.7,0.4-7.7,0.3-9.5-1.4c0-0.3-1.4-0.3-2.3-0.4l-5.9,0.3l-0.1-0.3
		c0.9-0.2,1.5-0.6,0.8-1.1c2.1-0.2,2.8-0.6,2.6-1.1h0l0-0.1c1.8,0.2,2.7,0.1,3.6,0l1.3,0c-2.4-0.7-1.9-1.2-1.3-1.6
		c1.5-0.3,0.3-1,0.4-1.5c-0.9-0.4-1-0.8-2.5-1.3c3-0.3,5.6-0.5,8.4-0.3c1.6,0.1,3-0.1,4.3-0.4c4.3-0.5,8-1,12.3-1.5
		c5.5,0.1,11-1.3,16.5-3.1l1.7-0.3L361,504c1.5,0.8,5,0.3,10.4-1.7l6.1-2c-0.8,0.3-1.3,0.7-0.7,1.1l-0.1,0c1.2,0.4,2.5,0.7,4.1,1
		c2.1,0.5,1.8,1.4,2.6,2.1c-5.2,1.9-10.4,3.8-15.3,5.6c-1,0.5-1.2,0.7-0.4,0.7c3.8-0.7,3.6-0.2,0.8,1.1l3.7-1.1
		c3.7-0.7,7.8-2,10.7-3.5c1.5-0.7,1.9-1,2.5-1.3c0.4,0,0.8-0.1,1.2-0.2l0.1,0.2c-0.4,1.1,1.3,1.8,2.2,2.6c2,0.1,2.3,0.5,0.9,1.3
		c0,0,0.2,0.5,0.1,0.8c-0.2,1,1,1.4,6-0.3c0.7-0.1,1.8-0.3,2.8-0.5l0.7,0.6l-1.2,0.8l0.5,0.6c2.2-0.3,3.2,0.1,6.4-0.8l0,0.2l0.6-0.1
		c0.9,1,2.3,1.7,2.6,2.8c0.3,1.1,3.3,1.1,7.7,0.4l1.9-0.7l0.4,0.6l-1.8,0.8c1.1,0.9,2.1,1.8,5.2,1.8c1.1,0,2.1,0.1,0,1.4
		c0,0.8,3.7-0.5,5.4-0.9c2.5-0.7,1.1,1,4.9-0.5l0,0c2.6-0.7,8.5-3.3,1.9,1.3l-2.6,1.4l0.4-0.1l-4.8,2.5c0,1-3.7,3.2-8.2,5.5
		c-0.5,0.6-2.1,1.6-0.9,1.6c3.4-1.2,7.3-2.8,6.4-1.6c-0.5,0.7,1.2,0.3,3-0.2c3.5-1.4,6.8-3.2,10-5.1c2.2-1,6.6-3.6,3.7-1.1
		c-3.4,1.9-6.5,4-10,5.5l-4.5,2.8l3.1-1l2.3-1c4-1.4,7.2-3.5,10.1-5.7l0.3-0.2c-0.8,1.3,3.5-1.2,6.2-2.5c3.1-1.9,5.3-3.2,5.8-2.8
		c1.9-0.8,3.6-2.1,5.5-3.8c2.8-2.5,5.6-4.8,9-7.3c11.4-8.1,21.3-19.2,29.6-31c4.8-7.3,10.2-14.2,14.5-22c4-5.7,9.1-12.2,12.7-22.6
		c0.2-0.9,0.3-1.3,0.5-1.9c0.4,2.8,0.6,5.9,3.5,2.9l1.2-3.1c0,0,0.1-0.4,0.3-1.1c0.4-1.3,0.7-1.9,1-2.1l0.6-0.4
		c2.6-6.9,3.3-6.1,5.2-10.6c0.5-0.4,1-1.2,2-4c0.1,0.4,0.3,0.8,0.1,1.3c-2.7,8.1-2.3,7.5-0.3,4.3c0.8-1.4,1.4-1.9,2.4-4.7
		c1.4-5.4,3.5-11.5,4.5-16.8c1.4-5,2.3-8.1,3.3-11.6c1-3.9,2.3-8.7,3.4-13.2c0.7-2.9,1.3-6.1,1.6-9.8c0.3-19.4,1.2-26.5,0.5-45.9
		c-0.2-7.7,0-16.5-2.5-24.9c-2.2-8.2-2.5-11-2.2-14.9c0.4-4.9-0.3-7.5-4-17.6l-2.2-6.1c-3.2-11.7-8.8-22-13.4-31.9
		c7.3,14.8,13.5,27.2,18.6,41.5c2.8,6.7,4.4,14.5,5.7,22.2c1.1,6.8,2.3,12.1,3.5,17.1l0,2.9c0.5,7.3,1,15,1.5,22.2
		c0.8,8.9-0.9,16.9-0.8,25.1c0.2,10.7-2.1,21.6-3.9,32.6c-1,5.7,0.2,2.3,0.4,2.6c1.1-4.3,2.1-6.4,3.1-12.3c0.7-3.3,1.7-8.8,1.9-9.5
		c2-3.3,2.4-13,2.8-21.2c0.3-6.4,0.6-13,0.1-19.4l-0.2-3.4l-0.8-9.2l-0.1-2c0.6-4.2,2,6.7,2.7,3.3c0.3-4.5,0.9-3.4,1.7,0
		c0.3-0.1,0.6-0.3,0.9,2l0.7,2.6c0.5,0.2,1.3,3.7,1.4-2c0.4,4.9,1,5.3,1.4,8.6c0.4-1.2,0.9-2.3,1.4-0.3c0.9,3.8,1.2-2.2,1.7-4.9
		l0.5,6.1c1,5.2,1.7,2,2.3-2.2c0.4-2.4,0.7-3.3,1.1,2.2c0.5,4.7,1,2.2,1.5,4.1c1.5,6.1,4.1-6,3.3-25.5c1.2,0,1.5-0.1,0-13.2
		l-1.4-9.5c-1-4-0.7,0.5-1.4-1.2c-0.2-0.6-0.2,0.3-0.2,1l-0.1-0.8l-1.3-6.6c-0.7-1.7-1.2-4.3-1.5-7.5l-0.7-4.8
		c-1.9-5.3-3.6-8.9-6.3-18.8c-1.7-5.8-3.7-12-6.2-17.6l-3.8-9.7c0.6,1.1,1.2,2.1,1.5,2.5c0,0,0-0.8-0.4-2.2
		c-4.8-12.3-5.6-18.4-9.2-26.8l-1.8-4l0.1,0.1c-0.3-3-4.5-9.8-7.6-15.3c-1-1.8-2.5-3.9-2.3-2.9c0.1,0.4,0.8,2,1.5,3.2
		c1.4,2.6,4.8,7.7,2.8,6.1l0,0c-4-6.5-8-13-12.6-18.7c-3.3-4-7.4-9.9-10.4-12.7c-0.6-0.8-1.1-1.3-1.6-1.9
		c-5.3-7.2-11-12.4-16.8-18.1c-1.1-0.9-1.7-1.3-2.3-1.5l0.2,0.2l1.9,2.6c2.9,3.3,0.2,1.5,0.6,2.5l-0.1-0.1l-0.1-0.1l0,0l-1.5-1.5
		l-0.7-0.8c-1.1-1.1-2.1-2-3.1-2.9l-1.7-1.5c-2.9-3-5.9-5.9-8.6-8c-9.7-7.5-20.3-15.8-30.6-22.9l0,0c-0.8-0.9-1.7-1.8-3.8-2.9
		C442.9,76.9,431.8,70.8,420,66l-2.2-1c-4.7-2.7-9.7-4.3-14.5-6.1c-11.1-4.4-22.8-6.4-34-9.2c-12.7-3.2-26.2-4.7-39.2-6.4
		c-2.7-1.4-1-2.9-7.5-3.8c-1.6-0.3-3.3-0.6-3.7-1.1c-1.6-0.7-2.4-1.4-1.1-2.1l-0.1,0c1-0.1,0.8-0.3-0.2-0.4
		c-1.1-0.3-2.3-0.2-3.5-0.1c0.9-0.3,1.7-0.7,0.5-1.2l0-0.1c0.9,0.1,1.9,0.2,3,0.1l0.2-0.1c6.3-0.2,11.2-1.5,18.9,0.2
		c1.4,0,2.9-0.5,3.5-0.3c6.8,2.5,14,2.6,21,3.5l2.7,0c1.4-0.5,2.9,0.2,4.5,1l2,0.6l2.9,0.9l3.6,1.1c1.7,0.5,3.4,0.9,4.7,1l3.1,0.9
		c6.4,1.3,12.8,2.2,19.5,6.3c1,0.6,3.4,1.3,5.1,2c5.1,0,15.3,5.4,22.4,8c6,2.3,13.1,8,18.8,10.3c7.7,3,16.8,9,25.1,15.4
		c12.6,8.8,24.7,20.7,35.8,32.1c2.9,3.2,6.2,5.8,9.3,10.5c-5.6-4.3-13.4-13.4-20.2-19.8c-2.1-1.9-4-3.6-5.9-5.3
		c-1.4-1.2-2.8-2.3-4.1-3.1l-0.9-0.4c6.3,6.3,12.8,12.9,18.7,18.9c10.4,9.4,18.1,20.8,25.8,32.7c2.2,3.8,4.4,7.1,6.2,8.4
		c0.2,0.3,1,1.4,1.5,2.1l0,0c1.5,2.9,3,5.3,3.7,5.5c2.6,4.2,6.3,10.3,7.6,12.3c2.7,3.5,4.6,6.5,6.8,12.4c0.9,2.6,2.1,5.3,3.4,8
		c3.6,7.4,6.6,15.3,9.2,23.4c1.1,4.6,2.5,8.9,3.9,13c0-0.3,0.4,0.2,0.4,0.2l0.2,1c1.9,9,5.1,18.1,6.4,27.7c0.9,4.6,1.8,7.9,2.6,14.2
		c2,15.2,1.7,18.7,3.3,18.2l0,0.4c1.2,3.9,1.1-8.9,1.2-12.6L589.6,277.4z M101.4,131.8L101.4,131.8l-2.3,2.4l0.3-0.5L101.4,131.8
		L101.4,131.8L101.4,131.8z M115.1,115.9L115.1,115.9l0.2-0.2L115.1,115.9z M128.4,515l-0.3,0l-0.6-0.5c-0.5-0.7-0.4-1-0.4-1.4
		c0,0,0.1,0.1,0.3,0.4l1,0.8l0.2,0.1C128.6,514.4,128.3,514.6,128.4,515z M383.2,544.3c1.1-0.1,1.8-0.2,3-0.3
		c-1.7,0.6-2.1,0.7-3.2,1C383.2,544.7,383.6,544.4,383.2,544.3z M308.6,569.7l-0.4,0.1c0,0-0.6,0.1-0.9,0.1l0,0L308.6,569.7z
		 M306.9,569.9L306.9,569.9c0.1,0-0.3,0.1-0.6,0.1L306.9,569.9z M552.2,294.3L552.2,294.3l0,0.2l0,0l0,0.3L552.2,294.3L552.2,294.3
		L552.2,294.3z M543,396.2L543,396.2l-0.1,0.2L543,396.2z M551.5,191.8L551.5,191.8L551.5,191.8l-0.1-0.1L551.5,191.8z M521.7,143.9
		c0,0,0.2,0.3,0.3,0.6l-0.5-0.6L521.7,143.9z M381.5,506.9c0,0,0-0.1,0.6-0.2c0.9-0.4,1.8-0.6,2.8-0.9l0,0
		C383.5,506.3,381.9,506.9,381.5,506.9z M482.5,427.1l0,0.1l0,0L482.5,427.1z M477.9,114.9L477.9,114.9L477.9,114.9L477.9,114.9z
		 M450.9,452.5l-0.3,0.4l-1.4,1.1L450.9,452.5z M448.6,458.9l-0.2,1.1l-0.3,0.3L448.6,458.9z M438.8,464.7L438.8,464.7l-0.1,0.1
		L438.8,464.7z M410.1,62.1l0,0.1l-0.7-0.4L410.1,62.1z M379.1,499.8l4.5-1.8l12-5.7c1.9-1,3.7-2,5.6-3.2l1.8-0.8
		c4.8-1.5,10.2-4.7,15.2-7.6c3.6-3.6,8.2-6.1,12.6-8.6c3.2-2.2,6.4-4.5,9.3-7.1c-0.7,0.6-1.3,1.3-2,2c3.7-2.7,6-4,5.3-1.9l0.4-0.3
		l0.5,0.3l-1.9,1.6l-3.4,3.2c-0.6,0.7-1.1,1.3-1.6,1.9c-2.1,1.8-3.9,3.6-6.3,5.2c-3.7,2.3-3.1,3-5,4.6c-1.9,1.1-3.4,2-3.7,2.9
		c-0.3,0.9,1.3,0.1,2.8-0.6c2.7-1.1,6.1-4,8.7-5.1l-0.1,0.1c0.8-0.4,1.7-0.7,2.7-1.5l1.2-1.1c3-2.7,6-5.6,9.2-7.9l1.4-1.3
		c1.3-0.9,2.4-2.1,3.5-3.3h-0.3l0.2-0.1l1.5-1.8l2.1-1.9l10.2-13c0,0,0.4-0.1,0.7-0.4c4.2-5.9,3.9-2.3,7.3-6.6c0,0-0.1,0.6-0.3,1.1
		c-5.6,10.4,2.2-2.5,1.3-0.3c2.5-4.1,4.9-8.1,7.2-12c-0.5,1.9-1.5,4.3-3.4,7.3c-5.8,9.9-12.9,19.5-20.4,27.4l-2.3,2.5l-1.2,1.3
		c-3.2,3-6.4,5.7-9.4,7.8l-5.1,4.8l-1.9,1.4c-2.6,1.4-5.3,3.3-7.9,5.1h0l-0.4,0.3c0,0,0.1-0.4-0.3-0.2l0.2-0.1
		c-1.9,0.8-4.1,2.6-6.1,3.5c-4,2.2-8.8,4-12.9,5.7l-0.6,0.3l-0.6,0.1c-1.6,0.3-3.2,1.2-4.8,1.8l-1,0.3l-0.2,0l-2.6,0.6
		c-3.6,0.5-6.9,0.5-10.7,0.7l0-0.1c-0.3-0.1-0.6-0.3-1.2-0.3c-0.5,0-1.1-0.1-1.8-0.1l-3.6,0.3l-2.4,0.4c-1.4,0.3-2.6,0.5-3.5,0.8
		L379.1,499.8z M439.2,471.9l-0.1,0.2l-0.1,0.1L439.2,471.9z M250.5,499.8c-3.5-2.3-5.4-2.8-7.6-3.5c-0.8-0.2-1.7-1-2.6-1.3
		c3.1,1,6.1,2.2,9.2,3.1c0,0.1,0.1,0.2,0.1,0.3l0.6,0.9l0.3,0.3L250.5,499.8z M254.3,521.6l-0.3-0.1L254.3,521.6L254.3,521.6z
		 M277.7,512.2c-1,0-2.1,0.2-2.5,0c-1.5-0.7-3.2-0.7-4.7-1.1c-0.4-0.1-0.9-0.3-1.3-0.4c-3.8-1.1-9.1-3.2-13.4-5.4c-2-1-4-2-5.1-3.3
		c3.4,0.6,9.5,5,12.3,4.5c0.4-0.1,2.6,0.9,4,1.5c5.3,2.7,9.4,3.4,12.2,3.4l1.3,0.4l2.5,0.8c0.6,0.2,0.9,0.3,1.5,0.5
		C282.5,513.2,280.3,512.9,277.7,512.2z M287.8,516.2c0,0-0.1,0-0.1,0c1.8,0.1,3.6,0.6,5.4,0.7l1,0.3c0.2,0.2,0,0.1,0.3,0.4l0.3,0.4
		C292.4,517.5,290,516.5,287.8,516.2z M302.4,522.1l0.2,0l0.4,0.2L302.4,522.1z M317.1,149.1c4.8-0.4,9.7-0.7,14.7-0.7
		c12.8,0,25.6,0,38.4,0c1.6,0,1.6,0,1.6,1.6c0,16.9,0,33.7,0,50.6c0,1.4,0,1.4-1.6,1.4c-9.2,0-18.7,0-28,0.1c-2.8,0-5.5,0.5-8,1.2
		c-5.8,1.4-8.9,5.3-9.5,11.1c-0.4,4.5-0.4,9.1-0.5,13.8c-0.1,6.9-0.1,13.6-0.2,20.5c0,0.3,0.1,0.8,0.2,1.2c15.9,0,31.7,0,47.8,0
		c-1.9,17.9-3.8,35.7-5.6,53.4c-0.6,0-1.1,0-1.5,0c-13.1,0-26.2,0-39.4,0c-1.4,0-1.4,0-1.4,1.3c0,50.5,0,101.1,0,151.6
		c0,0.5,0,1,0,1.6c-21.1,0-42.1,0-63.4,0c0-0.6,0-1.2,0-1.7c0-50.2,0-100.4,0-150.7c0-2.4,0.1-2-2-2c-9.5-0.1-18.8-0.1-28.2-0.1
		c-0.5,0-1,0-1.4,0c0-17.7,0-35.5,0-53.4c10.4,0,20.9,0,31.4,0c0.1-0.5,0.2-0.9,0.2-1.4c0-7.5-0.1-14.6,0-22.1
		c0.1-6.9,0.1-13.6,0.6-20.5c0.7-9.6,2.8-19,7.1-27.6c6.2-12.6,16.5-20.8,29.6-25.2C304,150.8,310.5,149.6,317.1,149.1z
		 M519.9,123.9L519.9,123.9C519.9,123.8,519.9,123.8,519.9,123.9c-0.1-0.3-0.1-0.6-0.1-0.7c0-0.2,0-0.4,0.2-0.4c0,0-0.1,0.1-0.2,0.4
		C519.8,123.3,519.8,123.6,519.9,123.9C519.9,123.8,519.9,123.9,519.9,123.9z M544.2,156.4L544.2,156.4L544.2,156.4L544.2,156.4
		L544.2,156.4l0.1,0.2L544.2,156.4z M562.2,193.2L562.2,193.2L562.2,193.2L562.2,193.2L562.2,193.2z"/>
	<path fill="#FFFFFF" d="M519.8,123.8c0-0.2-0.1-0.5-0.1-0.7C519.7,123.3,519.8,123.5,519.8,123.8z"/>
</g>
</svg>
