<?xml version="1.0" encoding="UTF-8"?><svg id="a" xmlns="http://www.w3.org/2000/svg" viewBox="0 0 533.06 552.04"><defs><style>.b{fill:#3d2929;}</style></defs><g><path class="b" d="M199.91,468.82c-6.59,0-12.93-1.46-17.84-4.1-16.53-8.9-25.85-22.37-26.25-37.95-.1-3.9,2.23-10.59,7.58-16.08,3.66-3.76,10.05-8.23,19.67-8.23,8.25,0,17.35,3.3,27.05,9.82,11.54,7.09,24.99,24.37,18.6,40.5-4.7,11.84-17.96,16.05-28.81,16.05Zm-16.83-63.39c-8.59,0-14.28,3.99-17.54,7.33-4.54,4.65-6.82,10.53-6.73,13.92,.37,14.47,9.14,27.04,24.68,35.41,4.49,2.42,10.32,3.75,16.43,3.75,9.87,0,21.9-3.72,26.05-14.17,5.69-14.36-7.04-30.51-17.44-36.89-9.25-6.21-17.79-9.34-25.44-9.34Z"/><path class="b" d="M196.54,454.91c-4.44,0-8.85-1.37-12.79-4.12-6.75-4.71-16.59-15.93-14.24-26,.19-.8,.99-1.3,1.79-1.11,.8,.19,1.3,.99,1.11,1.79-1.91,8.17,6.47,18.29,13.04,22.87,7.2,5.03,16.23,4.72,23.56-.81,.65-.49,1.59-.36,2.08,.29,.5,.66,.37,1.59-.29,2.08-4.4,3.32-9.35,4.99-14.26,4.99Z"/><path class="b" d="M185.87,424.45c-.13,0-.27-.02-.41-.06-.79-.23-1.25-1.05-1.03-1.84,.53-1.88,1.55-3.87,2.79-5.47,.5-.65,1.44-.77,2.09-.27,.65,.51,.77,1.44,.27,2.09-1,1.29-1.85,2.96-2.28,4.46-.19,.66-.78,1.09-1.43,1.09Z"/><path class="b" d="M199.07,432.32c-.31,0-.62-.1-.89-.3-.66-.49-.79-1.42-.3-2.08,1.38-1.84,2.24-3.42,2.64-4.81,.23-.79,1.05-1.25,1.84-1.02,.79,.23,1.25,1.05,1.02,1.84-.51,1.77-1.5,3.61-3.12,5.77-.29,.39-.74,.6-1.19,.6Z"/><path class="b" d="M223.52,427.11c-.57,0-1.11-.32-1.36-.87-2.33-5.15,4.06-10.37,7.52-12.09,7.52-3.75,16.15,.15,20.46,5.72,.5,.65,.38,1.58-.27,2.09-.65,.5-1.58,.38-2.09-.27-3.58-4.63-10.68-7.91-16.78-4.87-2.88,1.43-7.4,5.4-6.13,8.19,.34,.75,0,1.63-.74,1.97-.2,.09-.41,.13-.61,.13Z"/><path class="b" d="M223.47,428.45c-.06,0-.13,0-.2-.01-.81-.11-1.39-.86-1.28-1.67,.55-4.11,2.65-5.87,4.31-6.63,3.88-1.77,9.04,.07,12.58,2.39,.69,.45,.88,1.37,.43,2.06-.45,.69-1.37,.88-2.06,.43-2.96-1.94-7.11-3.36-9.71-2.17-1.43,.65-2.3,2.11-2.6,4.33-.1,.75-.74,1.29-1.47,1.29Z"/><path class="b" d="M245.38,437.98c-.23,0-.47-.05-.69-.17-.73-.38-1.01-1.28-.63-2.01,.04-.09,.03-.7-.83-1.87-2.61-3.61-9.14-7.5-13.35-6.92-1.82,.25-3.05,1.3-3.76,3.22-.29,.77-1.15,1.16-1.91,.88-.77-.29-1.16-1.15-.87-1.91,1.11-2.99,3.27-4.77,6.24-5.15,5.95-.74,13.45,4.35,16.21,8.33,1.62,2.33,1.39,3.9,.91,4.81-.27,.51-.78,.8-1.32,.8Z"/><path class="b" d="M176.12,404.23c-.71,0-1.34-.51-1.46-1.23-.2-1.16-.32-2.34-.45-3.6-.32-3.1-.64-6.3-2.29-8.84-3.48-5.38-12.45-11.69-19.25-12.08-.82-.05-1.45-.75-1.4-1.57,.05-.82,.77-1.45,1.57-1.4,7.89,.45,17.71,7.44,21.58,13.44,2.03,3.14,2.41,6.87,2.75,10.16,.12,1.2,.24,2.33,.42,3.38,.14,.81-.4,1.58-1.21,1.72-.09,.01-.17,.02-.26,.02Z"/><path class="b" d="M173.39,405.48c-.05,0-.11,0-.16,0-.82-.09-1.41-.82-1.32-1.64,.68-6.28-6.82-8.95-14.56-11.15l-1.1-.31c-.79-.23-1.24-1.05-1.02-1.85,.23-.79,1.06-1.25,1.84-1.02l1.09,.31c6.63,1.88,17.71,5.02,16.71,14.33-.08,.76-.73,1.33-1.48,1.33Z"/><path class="b" d="M171.02,405.73c-.62,0-1.2-.39-1.41-1-1.14-3.31-3.27-5.62-6.34-6.87-5.88-2.38-13.55-.38-18.34,2.06-.73,.37-1.63,.08-2-.65-.37-.73-.08-1.63,.65-2,5.6-2.85,14.01-4.92,20.8-2.17,3.85,1.56,6.63,4.55,8.04,8.66,.27,.78-.15,1.62-.92,1.89-.16,.05-.32,.08-.48,.08Z"/><path class="b" d="M161.28,414.05c-.11,0-.21-.01-.32-.03-.44-.1-.82-.39-1.02-.8-1.78-3.66-3.59-9.06-3.29-13.25,.04-.57,.41-1.07,.95-1.28,3.44-1.34,7.48,.1,11.38,1.49,2.11,.75,4.12,1.47,5.84,1.68,.08-.57,.15-1.16,.22-1.76,.62-4.98,1.39-11.19,4.99-14.66,.47-.45,1.18-.54,1.75-.24l.17,.09c3.31,1.8,7.84,4.27,10.32,7.55,.49,.65,.37,1.57-.27,2.07-1.2,.93-2.52,1.8-3.91,2.71-3.24,2.12-6.58,4.33-8.22,7.31,0,.06,.02,.12,.02,.18,.03,.82-.62,1.51-1.44,1.54-5.81,.18-12.19,3.76-16.23,7.05-.27,.22-.6,.33-.94,.33Zm-1.68-12.84c.07,2.85,1.11,6.3,2.26,9.02,3.09-2.26,7.08-4.48,11.2-5.67-1.66-.37-3.38-.98-5.07-1.58-2.98-1.06-6.05-2.16-8.38-1.77Zm21.79-12.83c-2.26,2.93-2.88,7.97-3.39,12.08-.1,.8-.19,1.57-.3,2.31,2.09-3.25,5.61-5.56,8.76-7.63,.85-.56,1.67-1.1,2.44-1.64-2.02-2.02-5.01-3.75-7.51-5.12Z"/><path class="b" d="M228.77,440.31c-.54,0-1.05-.29-1.31-.78-.46-.86-.91-1.71-1.35-2.55-3.3-6.23-6.15-11.6-11.2-17.01-.56-.6-.53-1.54,.07-2.1,.29-.27,.65-.4,1.02-.4h.02c3.09-2.99,7.11-4.1,10.7-5.08,.72-.2,1.44-.4,2.15-.61,.48-.15,1-.04,1.38,.28,.38,.32,.58,.81,.53,1.3-.17,1.55-1.07,3.58-2.02,5.74-1.12,2.53-2.78,6.31-2.15,7.61,.62,.3,2.62,.7,3.84,.94,2.39,.47,3.78,.76,4.56,1.31,1.81,1.28,3.76,2.89,5.95,4.93,.38,.35,.55,.88,.45,1.39-.11,.51-.47,.93-.96,1.1-1.02,.37-2.08,.79-3.16,1.21-2.73,1.08-5.56,2.2-8.25,2.69-.09,.02-.18,.02-.26,.02Zm-3.39-10.88c1.16,2.02,2.25,4.07,3.36,6.16,.27,.51,.54,1.03,.82,1.55,2.12-.52,4.41-1.42,6.63-2.3,.32-.13,.63-.25,.95-.38-1.38-1.21-2.65-2.22-3.85-3.06-.39-.23-2.21-.58-3.42-.82-2.19-.43-3.58-.74-4.49-1.15Zm-7.02-10.08c2,2.3,3.66,4.62,5.16,6.98-.14-2.41,1.2-5.46,2.51-8.43,.38-.86,.77-1.74,1.08-2.54-3.14,.87-6.33,1.8-8.75,3.99Z"/><path class="b" d="M165.51,428.46c-.38,0-.76-.14-1.05-.43-.58-.58-.58-1.52,0-2.11,.04-.04,4.53-4.51,8.06-3.66,1.22,.29,2.13,1.18,2.56,2.51,.25,.78-.17,1.62-.95,1.88-.79,.25-1.62-.17-1.88-.95-.16-.47-.33-.52-.42-.54-1.08-.26-3.76,1.35-5.26,2.86-.29,.29-.67,.44-1.05,.44Z"/><path class="b" d="M210.48,452.94c-.77,0-1.43-.6-1.48-1.38-.1-1.32-.73-2.71-1.45-3.17-.25-.16-.47-.18-.77-.07-.77,.29-1.63-.1-1.92-.87-.29-.77,.11-1.63,.87-1.91,1.17-.44,2.39-.31,3.42,.35,1.75,1.12,2.67,3.55,2.81,5.46,.06,.82-.56,1.53-1.38,1.59-.04,0-.07,0-.11,0Z"/><path class="b" d="M178.63,503.13c-1.54,0-2.91-.58-3.96-1.71-2.27,.79-3.5-.81-4.15-1.64-.47-.61-.78-.99-1.21-1.11-.46-.14-1.04-.07-1.7,.02-1.04,.13-2.32,.29-3.76-.27-.58-.22-.85-.67-1.33-1.48-.17-.29-.48-.81-.71-1.12-.11,.02-.23,.04-.33,.06-.65,.12-1.46,.28-2.18-.15-2.34-1.39-3.47-2.25-4.47-4.7-1.87-.15-4.35-1.38-6.09-6.09-.46,0-.71,.02-.94,.16-.52,.32-1.17,.29-1.66-.07-1.71-1.26-2.02-2.81-2.24-3.94-.13-.65-.23-1.17-.55-1.6-.17-.22-.52-.37-1.08-.58-1.05-.41-2.64-1.02-3.34-3.16-.15-.46-.07-.97,.23-1.36,2.59-3.42,7.19-5.8,11.24-7.89,1.64-.85,3.19-1.65,4.5-2.46,2.32-1.43,5.08-2.86,7.76-4.25,3.1-1.6,6.04-3.12,8.06-4.52,.67-.47,1.6-.3,2.07,.38,.47,.68,.3,1.6-.38,2.07-2.18,1.51-5.2,3.06-8.39,4.71-2.63,1.36-5.34,2.76-7.56,4.13-1.4,.87-3.01,1.69-4.7,2.57-3.46,1.79-7.34,3.79-9.64,6.34,.26,.27,.63,.43,1.22,.66,.75,.29,1.69,.65,2.38,1.55,.74,.98,.95,2,1.11,2.83,.13,.67,.23,1.15,.54,1.58,.51-.12,.98-.13,1.36-.14,.25,0,.49-.01,.61-.05,.38-.12,.79-.08,1.14,.11,.35,.19,.61,.5,.73,.88,.64,2.08,2.08,5.5,4.44,5.14,.72-.11,1.4,.31,1.63,.99,.8,2.34,1.34,2.81,3.31,3.98,.11-.02,.25-.04,.36-.07,.69-.13,1.56-.3,2.33,.17,.68,.41,1.18,1.21,1.82,2.29,.07,.12,.14,.23,.19,.33,.62,.15,1.25,.07,1.97-.02,.87-.11,1.85-.23,2.9,.08,1.39,.41,2.17,1.42,2.73,2.15,.2,.26,.5,.65,.63,.71,0,0,.23-.02,.79-.38,.34-.22,.75-.29,1.15-.2,.39,.09,.73,.34,.94,.69,.87,1.46,2.17,1.54,3.32,1.21,.12-2.7,.36-5.56,.61-8.55,.81-9.58,1.73-20.45-1.59-28.69-.31-.76,.06-1.63,.82-1.94,.76-.3,1.63,.06,1.94,.82,3.59,8.89,2.64,20.13,1.8,30.05-.28,3.33-.55,6.47-.64,9.39-.02,.56-.35,1.07-.86,1.3-1.09,.51-2.16,.76-3.17,.76Z"/><path class="b" d="M170.86,458.64c-.49,0-.97-.24-1.26-.69-3.58-5.64-19.34-4.77-24.92-1.77-.72,.39-1.63,.12-2.02-.6-.39-.72-.12-1.63,.6-2.02,5.85-3.15,23.92-4.95,28.84,2.8,.44,.69,.24,1.61-.46,2.05-.25,.16-.52,.23-.8,.23Z"/><path class="b" d="M196.25,484.46c-.08,0-.16,0-.25-.02-.81-.13-1.36-.9-1.22-1.71,.7-4.18-9.67-15.65-14.08-16.7-.8-.19-1.29-.99-1.1-1.79,.19-.8,.99-1.3,1.79-1.1,5.35,1.27,17.33,14.06,16.32,20.08-.12,.73-.75,1.24-1.47,1.24Z"/><path class="b" d="M146.45,501.59c-.23,0-.47-.05-.69-.17-.73-.38-1.01-1.28-.63-2.01,.25-.47,.5-.98,.77-1.5,1.95-3.87,4.38-8.69,8.03-10.19,.76-.31,1.63,.05,1.94,.81,.31,.76-.05,1.63-.81,1.94-2.63,1.08-4.87,5.53-6.5,8.78-.27,.54-.53,1.06-.78,1.54-.27,.51-.78,.8-1.32,.8Z"/><path class="b" d="M155.69,507.31c-.14,0-.29-.02-.44-.07-.79-.24-1.23-1.07-.99-1.86,.49-1.61,1.57-3.12,2.72-4.71,1.7-2.37,3.45-4.82,3.1-7.44-.11-.82,.46-1.56,1.27-1.67,.81-.1,1.56,.46,1.68,1.27,.51,3.79-1.69,6.87-3.63,9.57-1,1.4-1.94,2.71-2.29,3.85-.19,.64-.79,1.05-1.42,1.05Z"/></g><g><path class="b" d="M251.28,83.6h0c-17.39,0-33.65-6.41-41.43-16.34-6.95-8.87-4.82-28.41,1.8-35.99,11.46-13.12,21.89-14.54,25.84-14.54,.61,0,1.04,.04,1.24,.06,16.09,0,33.95,1.23,42.64,15.57,5.76,9.51,7.77,21.17,5.26,30.42-1.89,6.94-6.26,12.43-12.63,15.87-5.99,3.23-13.85,4.94-22.71,4.94Zm-13.79-63.77c-2.75,0-12.59,.97-23.51,13.48-5.84,6.68-7.7,24.39-1.69,32.05,7.1,9.06,22.78,15.15,39,15.15h0c8.23,0,15.78-1.62,21.24-4.57,5.69-3.07,9.43-7.77,11.12-13.96,2.3-8.46,.42-19.19-4.92-28-7.87-12.99-24.82-14.08-40.09-14.08-.07,0-.15,0-.22-.02h0s-.33-.04-.92-.04Z"/><path class="b" d="M239.13,40.65c-.08,0-.17,0-.25-.02-.84-.14-1.41-.93-1.27-1.78,.18-1.08,.45-2.12,.71-3.13,.33-1.27,.64-2.47,.76-3.69,.09-.85,.85-1.47,1.69-1.38,.85,.08,1.47,.84,1.38,1.69-.14,1.46-.5,2.83-.84,4.16-.25,.98-.49,1.91-.65,2.86-.13,.76-.78,1.29-1.52,1.29Z"/><path class="b" d="M248.02,44.61h-.04c-.85-.02-1.53-.73-1.51-1.58,.07-2.9,1.07-5.9,1.95-8.55l.1-.31c.27-.81,1.14-1.25,1.96-.98,.81,.27,1.25,1.14,.98,1.95l-.1,.31c-.81,2.44-1.74,5.2-1.79,7.64-.02,.84-.71,1.51-1.54,1.51Z"/><path class="b" d="M249.2,69.53c-2.1,0-4.4-.24-6.93-.75-4.93-.99-18.62-5.25-22.61-12.92-1.42-2.73-1.5-5.58-.24-8.47,.34-.78,1.25-1.14,2.03-.8,.78,.34,1.14,1.25,.8,2.03-.88,2.02-.83,3.92,.15,5.81,3.05,5.85,14.18,10.05,20.48,11.32,10.64,2.14,16.52-.24,24.19-9.82,.53-.66,1.5-.77,2.17-.24,.66,.53,.77,1.51,.24,2.17-5.8,7.24-11.33,11.67-20.29,11.67Z"/><path class="b" d="M271.25,61.41c-.83,0-1.51-.65-1.54-1.48-.07-1.65-.68-3.16-1.64-4.04-.72-.66-1.63-.96-2.67-.91-.88,.02-1.58-.62-1.62-1.47-.04-.85,.62-1.58,1.47-1.62,1.88-.09,3.58,.5,4.91,1.71,1.58,1.44,2.54,3.7,2.64,6.19,.04,.85-.63,1.57-1.48,1.61-.02,0-.04,0-.06,0Z"/><path class="b" d="M215.4,50.54c-.09,0-.18,0-.27-.02-.84-.15-1.4-.95-1.25-1.79,.26-1.47,1.87-2.59,4.3-3.02,2.52-.44,5.99-.04,7.46,2.52,.43,.74,.17,1.68-.57,2.11-.74,.43-1.68,.17-2.11-.57-.5-.86-1.87-1.06-2.44-1.1-1.79-.14-3.29,.45-3.64,.77-.19,.66-.8,1.11-1.48,1.11Z"/><path class="b" d="M254.45,18.41s-.06,0-.09,0c-.85-.05-1.5-.78-1.46-1.63,.29-5.07,5.8-14.06,10.16-16.57,.74-.42,1.68-.17,2.11,.57,.43,.74,.17,1.68-.57,2.11-3.48,2-8.39,10.03-8.62,14.07-.05,.82-.73,1.46-1.54,1.46Z"/><path class="b" d="M249.5,19.89h-.05c-.85-.03-1.52-.74-1.5-1.59,.07-2.32,.17-5.49-.77-7.07-.44-.73-.2-1.68,.53-2.12,.73-.44,1.68-.2,2.12,.53,1.4,2.35,1.29,5.9,1.21,8.75-.03,.84-.71,1.5-1.54,1.5Z"/><path class="b" d="M246.54,19.4c-.79,0-1.46-.6-1.54-1.4-.5-5.42-5.04-12.47-10.12-13.45-.84-.16-1.39-.97-1.22-1.81,.16-.84,.98-1.39,1.81-1.23,6.66,1.28,12,9.57,12.61,16.2,.08,.85-.55,1.6-1.4,1.68-.05,0-.1,0-.14,0Z"/><path class="b" d="M239.1,144.49c-2.72,0-5.8-1.12-8.38-2.06l-.47-.17c-.79-.29-1.21-1.16-.93-1.96,.66-1.93,.9-4.96,.17-6.62-1,2.55-2.2,5.26-4.07,7.25-.39,.42-.98,.58-1.53,.43-.65-.18-2.41-.44-4.27-.71-7.87-1.16-10.85-1.8-11.87-3.09-.52-.65-.49-1.54-.39-2.41,.86-7.31,16.8-53.32,22.43-57.74,.67-.53,1.64-.41,2.17,.26,.53,.67,.41,1.64-.26,2.17-4.52,3.55-20.95,49.72-21.31,55.87,1.59,.69,6.98,1.48,9.68,1.88,1.48,.22,2.75,.4,3.66,.57,1.43-1.83,2.42-4.4,3.31-6.7l.37-.95c.3-.76,1.14-1.15,1.91-.9,1.25,.4,2.24,1.28,2.88,2.55,1.18,2.36,.93,5.52,.46,7.67,5.78,2.05,8.44,2.36,9.62-.5,1.61-3.91,1.93-36.36,1.75-57.22,0-.85,.68-1.55,1.53-1.56h.01c.85,0,1.54,.68,1.55,1.53,.05,5.38,.39,52.69-1.98,58.43-1.24,3-3.47,3.97-6.01,3.97Z"/><path class="b" d="M206.01,93.54c-.29,0-.59-.08-.86-.26-.71-.47-.9-1.43-.43-2.14,3.54-5.3,15.78-17.06,23.68-13.39,.77,.36,1.11,1.28,.75,2.05-.36,.77-1.28,1.11-2.05,.75-5.4-2.51-16.05,6.67-19.81,12.31-.3,.45-.79,.69-1.29,.69Z"/><path class="b" d="M260.37,109.35c-.78,0-1.44-.58-1.53-1.37-1.24-10.69-7.17-16.61-14.8-23.23-.64-.56-.71-1.53-.15-2.18,.56-.64,1.54-.71,2.18-.15,7.86,6.82,14.48,13.43,15.84,25.21,.1,.85-.51,1.61-1.36,1.71-.06,0-.12,.01-.18,.01Z"/><path class="b" d="M210.95,142.96c-.33,0-.66-.11-.94-.32-.67-.52-.8-1.49-.28-2.17,1.84-2.37,5.11-3.24,6.89-3.54,.84-.15,1.64,.42,1.78,1.26,.14,.84-.42,1.64-1.26,1.78-2.28,.39-4.09,1.26-4.97,2.39-.3,.39-.76,.6-1.22,.6Z"/><path class="b" d="M237.14,150.87c-.64,0-1.23-.4-1.46-1.03-.31-.89-.61-1.78-.91-2.68-.62-1.88-1.28-3.82-2.03-5.65-.32-.79,.05-1.69,.84-2.02,.79-.32,1.69,.05,2.01,.84,.79,1.93,1.46,3.92,2.1,5.84,.29,.88,.59,1.76,.89,2.63,.28,.8-.14,1.69-.95,1.97-.17,.06-.34,.09-.51,.09Z"/></g><path class="b" d="M426.42,275.23c-.91,0-1.69-.67-1.81-1.59-.85-6.47-2.53-10.52-6.65-16.05l-.38-.51c-3.83-5.13-8.17-10.95-7.14-18.4,.65-4.72,2.76-8.54,5.92-10.76,2.75-1.94,6.17-2.55,9.88-1.77,8.61,1.81,10.8,7.53,10.98,13.12,3.52-1.64,7.51-1.56,10.73-.38,5.38,1.98,10.07,7.58,8.41,15.64-2.4,11.64-12.68,18.8-29.74,20.69-.07,0-.14,.01-.2,.01Zm-3.26-45.75c-1.77,0-3.34,.48-4.7,1.44-2.32,1.63-3.88,4.57-4.4,8.27-.83,5.96,2.7,10.7,6.45,15.71l.38,.52c4.1,5.5,6.06,9.85,7.08,15.96,10.34-1.43,22.36-5.7,24.81-17.58,1.3-6.33-2.46-10.13-6.09-11.46-2.93-1.08-6.75-.91-9.67,1.36-.03,.25-.06,.5-.09,.75-.13,1-1.03,1.72-2.05,1.59h-.01c-.17,.26-.34,.53-.5,.82-.48,.89-1.6,1.21-2.48,.73-.89-.49-1.21-1.6-.73-2.48,.68-1.24,1.47-2.29,2.34-3.18,.5-7.31-1.91-10.89-8.01-12.17-.81-.17-1.59-.25-2.33-.25Z"/><path class="b" d="M76.4,84.72c.31,.85-.06,1.82-.89,2.24-5.8,2.98-9.05,5.93-12.87,11.67l-.35,.53c-3.54,5.34-7.55,11.38-14.91,12.92-4.66,.97-8.97,.28-12.13-1.94-2.75-1.94-4.48-4.95-5-8.71-1.2-8.72,3.45-12.7,8.65-14.76-2.73-2.76-4-6.55-3.98-9.97,.05-5.73,3.74-12.04,11.89-13.19,11.77-1.66,21.98,5.6,29.51,21.02,.03,.06,.06,.13,.08,.19Zm-41.98,18.49c.6,1.66,1.58,2.98,2.94,3.94,2.32,1.64,5.61,2.11,9.27,1.35,5.89-1.23,9.16-6.15,12.62-11.36l.36-.53c3.8-5.71,7.23-9.02,12.64-12.04-4.83-9.25-12.9-19.13-24.91-17.43-6.4,.9-8.71,5.73-8.74,9.59-.03,3.13,1.41,6.66,4.54,8.64,.25-.06,.49-.11,.73-.17,.99-.22,1.96,.39,2.18,1.39h0c.3,.09,.62,.15,.94,.2,1,.16,1.68,1.09,1.52,2.09-.16,1-1.1,1.68-2.09,1.52-1.39-.22-2.65-.61-3.78-1.13-7.05,2-9.61,5.47-8.76,11.65,.11,.82,.29,1.58,.54,2.28Z"/><path class="b" d="M482.13,77.32c-.37,0-.74-.11-1.05-.34-5.33-3.76-9.44-5.28-16.3-6.01l-.63-.07c-6.37-.67-13.58-1.43-18.36-7.25-3.02-3.68-4.4-7.82-3.89-11.65,.45-3.34,2.32-6.26,5.41-8.46,7.17-5.1,12.86-2.82,17.09,.84,1.18-3.7,3.95-6.58,7-8.14,5.1-2.61,12.4-2.25,17.19,4.44,6.92,9.67,5.19,22.08-4.99,35.88-.36,.49-.91,.74-1.47,.74Zm-26.68-33.05c-1.94,0-3.91,.76-6.02,2.26-2.28,1.62-3.59,3.62-3.9,5.96-.38,2.81,.72,5.96,3.09,8.84,3.82,4.66,9.69,5.28,15.91,5.93l.64,.07c6.82,.73,11.35,2.24,16.52,5.64,5.97-8.56,10.99-20.28,3.93-30.15-3.76-5.26-9.11-5.07-12.55-3.31-2.78,1.42-5.25,4.33-5.56,8.03,.17,.19,.33,.38,.49,.57,.65,.77,.55,1.93-.22,2.58h0c.07,.31,.16,.62,.27,.93,.32,.96-.2,2-1.15,2.32-.96,.32-2-.19-2.32-1.15-.45-1.34-.69-2.63-.75-3.87-2.94-3.12-5.63-4.64-8.36-4.64Z"/><g><path class="b" d="M430.7,354.87c-.87,1.33-2.49,2.13-4.85,2.37-5.57,.58-9.14-5.8-12.3-11.43-1.56-2.79-3.17-5.65-4.74-7.14-.86,.47-1.94,1.11-3.13,1.83-7.24,4.35-18.19,10.92-23.06,4.25-1.58-2.17-1.39-3.95-.96-5.06,1.42-3.61,7.37-5.54,14.53-7.09-7.06-.79-12.73-2.11-13.91-5.28-.4-1.07-.44-2.78,1.61-4.86,5.55-5.63,15.87,.49,23.4,4.96,2.14,1.27,4.01,2.38,5.25,2.89,4.52-1.47,14.43-1.4,20.18,.32,2.94,.88,4.84,2.16,5.62,3.81,1.26,2.64,.52,4.17-.33,5-2.54,2.47-9.66,1-15.04-.62,6.59,6.92,9.28,11.88,8.19,15.1-.12,.35-.27,.67-.47,.96Zm-45.98-14.47c-.09,.13-.16,.27-.21,.4-.08,.22-.34,.87,.58,2.14,3.23,4.41,13.11-1.52,19.02-5.07,1.69-1.02,3.16-1.89,4.24-2.41,.49-.23,1.07-.19,1.51,.12,2.39,1.63,4.32,5.08,6.36,8.73,2.69,4.81,5.74,10.25,9.31,9.88,1.09-.11,2.45-.43,2.73-1.27,.22-.65,.68-4.5-11.94-16.39l-.3-.28c-.55-.52-.64-1.38-.2-1.99,.44-.62,1.27-.82,1.94-.48,3.09,1.58,16.15,5.36,18.1,3.46,.16-.16,.04-.77-.3-1.49-.38-.79-1.75-1.59-3.74-2.19-6.35-1.9-16.86-1.39-19.12-.02-.72,.43-1.66,.2-2.1-.52-.06-.09-.1-.19-.14-.29-.96-.47-2.07-1.1-3.3-1.83,.28,.26,.46,.63,.49,1.03,.04,.67-.35,1.27-.97,1.52-1.04,.41-2.92,.77-5.52,1.27-5.16,.99-14.56,2.81-16.45,5.69Zm.68-15.01c-.23,.36-.33,.66-.26,.85,.63,1.71,6.5,3.01,17.43,3.87,2.24,.18,3.34,.27,3.94,.42,.03,0,.06,.02,.09,.03-.29-.17-.58-.34-.88-.52-6.29-3.73-15.79-9.37-19.66-5.44-.28,.28-.5,.55-.66,.8Z"/><path class="b" d="M407.58,356.88c-.26,.4-.71,.68-1.23,.69-.85,.03-1.55-.63-1.58-1.48-.16-4.73,1.39-14.13,4.28-18.7,0,0,0-.01,.01-.02,.46-.7,1.39-.9,2.1-.46,.71,.45,.93,1.39,.48,2.11-2.3,3.64-3.97,12.26-3.81,16.96,.01,.33-.08,.63-.25,.89Z"/><path class="b" d="M412.6,338.74c-.46,.7-.97,1.3-1.48,1.68-.43,.33-1.01,.4-1.51,.2-1.66-.69-2.75-1.95-3.09-3.56-.42-2.01,.39-4.36,2.12-6.15,.59-.61,1.56-.63,2.16-.04,.02,.02,.04,.04,.06,.06,1.72-.57,2.61,.31,2.95,.8,1.14,1.61,.2,4.84-1.21,7.01Zm-2.67-1.5c.63-.91,1.12-2.22,1.29-3.1-.03,.02-.06,.04-.1,.06-.38,.25-.84,.3-1.24,.19-.35,.71-.49,1.44-.36,2.04,.06,.31,.2,.57,.42,.8Z"/><path class="b" d="M416.75,329.29c-1.18,1.81-3.58,3.09-5.71,2.82-.84-.1-1.43-.87-1.33-1.71,.02-.13,.05-.26,.1-.38-1.15-1.48-1.39-3.38-.82-4.81,.68-1.68,2.62-2.94,5.42-1.95,2.76,.97,3.35,2.98,2.99,4.56-.12,.51-.34,1.01-.64,1.47Zm-3.85-.54c.75-.39,1.38-1.05,1.52-1.63,.04-.15,.13-.56-1.02-.97-.59-.21-1.35-.35-1.57,.21-.24,.6,.02,1.74,1.07,2.39Z"/></g><path class="b" d="M374.95,459.71c-4.34,0-10.57-1.97-14.4-5.84-.95-.96-1.7-1.99-2.24-3.08-2.51,2.3-6.24,3.16-10.39,2.23-4.83-1.09-9.52-4.67-10.37-9.72-4.43,.77-9.71-.46-13.17-3.25-3.02-2.44-4.38-5.77-3.82-9.39,.48-3.08,1.79-5.36,3.9-6.76,2.59-1.73,6-1.8,9.04-1.41-.23-.78-.33-1.61-.27-2.47,.21-3.49,2.75-6.87,6.17-8.22,4.44-1.76,10.96-1.08,15.7,1.43,2.19-6.66,8.14-12.73,15.39-12.22,4.12,.3,8.05,2.86,10.26,6.68,.76,1.31,1.25,2.67,1.47,4.03,.55-.42,1.16-.8,1.83-1.13,3.5-1.73,8.73-2.05,11.53,.75,.72,.72,1.62,2.02,1.61,4.02,1.97-.42,4.11-.37,5.89,0,3.06,.62,5.3,2.14,6.31,4.26,2.39,5.01-1.23,8.32-3.63,10.5-.44,.41-.89,.82-1.29,1.21,1.85,.74,2.74,2.09,3.16,3.01,1.84,4.1-.6,10.22-3.08,13.05-2.71,3.11-9.65,5.73-14.87,4.59-1.33-.29-2.48-.82-3.41-1.55-1.67,4.86-4.14,9.13-11.01,9.28-.1,0-.21,0-.31,0Zm-15.82-15.19c.12,0,.24,.01,.36,.04,.88,.17,1.5,.96,1.47,1.86-.06,1.72,.68,3.37,2.19,4.89,3.16,3.19,8.55,4.84,12.03,4.75,5.41-.12,6.66-3.44,8.57-9.8l.13-.43c.23-.77,.95-1.3,1.75-1.3h0c.81,0,1.52,.54,1.75,1.31,.4,1.36,1.41,2.2,3.08,2.57,3.78,.82,9.39-1.19,11.33-3.42,1.96-2.25,3.51-6.92,2.5-9.15-.26-.58-.84-1.37-2.82-1.39-.55,0-1.08-.26-1.42-.7-.34-.44-.47-1-.35-1.54,.45-1.93,2.04-3.39,3.59-4.8,2.79-2.55,3.9-3.91,2.79-6.22-.5-1.05-1.86-1.87-3.74-2.25-2.52-.51-5.44-.08-6.66,1-.66,.58-1.63,.61-2.32,.08-.7-.53-.92-1.48-.53-2.26,.6-1.22,1.12-2.88,.17-3.83-1.31-1.31-4.73-1.33-7.33-.05-1.24,.61-3.26,2.01-2.93,4.54,.13,1-.58,1.92-1.58,2.05-1.01,.13-1.92-.57-2.05-1.58-.01-.1-.02-.19-.03-.29-.04-.02-.08-.04-.12-.06-.91-.44-1.29-1.54-.85-2.44,.95-1.96,.76-4.36-.53-6.58-1.58-2.74-4.47-4.65-7.36-4.86-6.48-.47-11.24,6.54-12.17,11.79-.11,.63-.54,1.16-1.14,1.39-.6,.23-1.27,.13-1.78-.26-3.67-2.84-10.39-3.95-14.38-2.37-2.08,.82-3.74,2.99-3.86,5.05-.09,1.47,.62,2.63,2.1,3.44,.81,.44,1.16,1.41,.83,2.27-.33,.86-1.25,1.33-2.14,1.11-2.9-.72-8.28-2.05-11.18-.12-1.24,.82-2,2.22-2.31,4.28-.36,2.33,.48,4.35,2.5,5.98,3.11,2.51,8.36,3.41,11.93,2.03,.59-.23,1.25-.13,1.75,.24,.5,.38,.78,.99,.73,1.61-.35,4.28,3.57,7.45,7.63,8.36,3.25,.73,7.23,.13,8.7-3.75,.27-.72,.96-1.19,1.71-1.19Z"/><path class="b" d="M153.67,141.55c-1.16,1.21-2.41,2.01-3.75,1.64-1.84-.51-2.12-2.56-2.39-4.55-.03-.18-.05-.4-.09-.63-.95,1.02-2.02,1.84-3.15,2.39-.43,.21-.93,.23-1.38,.07-.45-.17-.81-.51-1-.95-.5-1.18-.48-2.42-.35-3.58-.31,.29-.62,.59-.93,.9l-.51,.5c-.49,.48-1.23,.63-1.87,.37-.64-.25-1.08-.86-1.11-1.55-.06-1.33,.19-2.64,.43-3.9,0-.02,0-.04,.01-.06-.58,.44-1.14,.92-1.72,1.42-1.25,1.07-2.54,2.18-4.12,2.97-.54,.27-1.17,.25-1.69-.06-.52-.31-.84-.85-.86-1.46-.03-1.04,.13-2.5,.32-4.19,.41-3.66,1.18-10.46-1.05-11.54-2.4-1.15-8.24,7.84-10.16,10.79-.84,1.29-1.5,2.3-2,2.95-.6,.76-1.71,.9-2.47,.3-.76-.6-.9-1.71-.29-2.47,.41-.52,1.06-1.53,1.82-2.69,3.76-5.79,9.45-14.54,14.63-12.05,4.49,2.16,3.64,9.64,3.02,15.11,0,.05-.01,.1-.02,.16,.19-.16,.38-.32,.57-.49,1.6-1.38,3.26-2.8,5.52-3.59,.51-.18,1.08-.11,1.54,.19,.46,.3,.75,.79,.79,1.33,.07,.89-.01,1.78-.15,2.66,.4-.31,.81-.6,1.24-.87,.48-.3,1.08-.36,1.6-.15,.52,.21,.92,.66,1.05,1.21,.3,1.21,.17,2.44,.03,3.54,.48-.58,.85-1.14,1.09-1.56,.43-.75,1.34-1.07,2.15-.76,1.99,.76,2.31,3.14,2.6,5.23,.04,.27,.08,.6,.13,.91,.26-.27,.59-.65,1-1.16,.61-.76,1.71-.88,2.47-.28,.76,.61,.88,1.71,.28,2.47-.4,.5-.81,.99-1.23,1.42Z"/><path class="b" d="M327.3,510.64c.5,2.38,.46,4.54-1.08,5.85-2.12,1.81-4.81,.47-7.41-.82-.24-.12-.53-.26-.83-.41,.45,1.98,.57,3.93,.31,5.73-.1,.69-.48,1.31-1.04,1.72-.57,.41-1.28,.56-1.97,.43-1.83-.35-3.3-1.39-4.59-2.49,.1,.61,.21,1.22,.32,1.84l.18,1.02c.17,.99-.25,1.99-1.08,2.56-.83,.57-1.92,.59-2.77,.07-1.65-1.01-3.02-2.37-4.35-3.68-.02-.02-.04-.04-.06-.06,.06,1.05,.18,2.12,.31,3.22,.27,2.37,.56,4.82,.23,7.37-.11,.87-.66,1.62-1.45,1.98-.79,.37-1.71,.32-2.45-.15-1.28-.8-2.9-2.19-4.78-3.8-4.06-3.47-11.63-9.94-14.73-8.13-3.33,1.95,2.73,16.29,4.72,21.01,.87,2.06,1.55,3.68,1.92,4.81,.43,1.33-.31,2.78-1.66,3.21-1.34,.43-2.78-.31-3.21-1.65-.29-.91-.97-2.52-1.76-4.38-3.9-9.24-9.8-23.2-2.59-27.41,6.24-3.64,14.56,3.46,20.63,8.66,.06,.05,.12,.1,.18,.15-.04-.36-.08-.72-.12-1.09-.35-3.05-.72-6.2,.18-9.56,.2-.76,.75-1.39,1.48-1.7,.73-.31,1.56-.26,2.25,.13,1.12,.63,2.12,1.46,3.07,2.35-.05-.73-.06-1.46-.04-2.21,.03-.82,.44-1.58,1.12-2.04,.68-.46,1.54-.56,2.31-.28,1.7,.63,3.07,1.78,4.29,2.85-.3-1.05-.68-1.95-.98-2.58-.55-1.12-.2-2.48,.83-3.2,2.54-1.78,5.66-.23,8.41,1.13,.36,.18,.79,.39,1.21,.59-.11-.54-.3-1.24-.58-2.15-.42-1.36,.33-2.78,1.68-3.2,1.35-.42,2.78,.33,3.2,1.67,.28,.89,.53,1.78,.71,2.64Z"/><path class="b" d="M279,201.26c.48-2.39,1.36-4.35,3.29-4.95,2.66-.83,4.6,1.46,6.49,3.68,.17,.2,.38,.45,.6,.7,.36-2.01,1.03-3.84,1.97-5.39,.36-.6,.95-1.02,1.64-1.17,.68-.15,1.4-.01,1.98,.38,1.55,1.04,2.48,2.58,3.24,4.1,.15-.6,.28-1.21,.43-1.82l.23-1.01c.23-.98,1.01-1.73,2-1.93,.99-.19,2,.21,2.57,1.03,1.12,1.58,1.84,3.37,2.54,5.1,.01,.03,.02,.05,.03,.08,.36-.99,.67-2.02,.98-3.08,.68-2.29,1.39-4.65,2.7-6.87,.44-.75,1.24-1.22,2.11-1.25,.87-.03,1.7,.39,2.19,1.1,.86,1.24,1.8,3.16,2.9,5.37,2.37,4.79,6.77,13.72,10.34,13.27,3.83-.48,3.91-16.05,3.94-21.17,.01-2.23,.02-3.99,.13-5.17,.14-1.41,1.38-2.44,2.79-2.3,1.4,.13,2.44,1.38,2.3,2.79-.09,.95-.1,2.7-.11,4.72-.05,10.03-.14,25.18-8.42,26.21-7.17,.89-12.01-8.92-15.55-16.08-.03-.07-.07-.14-.1-.21-.11,.34-.21,.7-.31,1.05-.88,2.94-1.79,5.98-3.93,8.71-.49,.62-1.24,.98-2.03,.98-.79,0-1.54-.38-2.02-1-.78-1.03-1.38-2.18-1.9-3.37-.25,.69-.52,1.37-.83,2.05-.35,.75-1.03,1.28-1.84,1.43-.81,.15-1.64-.09-2.24-.65-1.31-1.25-2.12-2.84-2.82-4.31-.14,1.08-.14,2.06-.11,2.76,.06,1.25-.8,2.36-2.03,2.62-3.03,.64-5.29-2.01-7.28-4.35-.26-.3-.57-.67-.88-1.02-.1,.54-.21,1.25-.31,2.2-.15,1.4-1.4,2.42-2.8,2.28-1.4-.14-2.42-1.4-2.28-2.8,.09-.93,.21-1.84,.38-2.7Z"/><path class="b" d="M112.35,326.4c1.19,2.28,1.76,4.48,.58,6.25-1.63,2.44-4.75,1.85-7.77,1.28-.28-.05-.61-.12-.96-.18,1.03,1.89,1.7,3.83,1.95,5.74,.1,.73-.11,1.47-.57,2.05-.46,.57-1.14,.94-1.88,1-1.96,.17-3.75-.48-5.37-1.22,.28,.59,.56,1.18,.85,1.78l.48,.99c.46,.96,.32,2.09-.37,2.91-.68,.81-1.78,1.15-2.8,.86-1.96-.55-3.75-1.54-5.47-2.5-.03-.02-.05-.03-.08-.04,.36,1.05,.79,2.1,1.23,3.18,.96,2.33,1.94,4.75,2.34,7.43,.13,.91-.21,1.82-.9,2.43-.69,.6-1.65,.81-2.53,.55-1.53-.45-3.57-1.4-5.94-2.5-5.12-2.37-14.66-6.78-17.29-4.05-2.83,2.93,7.42,15.78,10.79,20,1.47,1.84,2.63,3.3,3.32,4.34,.82,1.25,.48,2.92-.76,3.74-1.24,.82-2.92,.48-3.74-.76-.56-.84-1.71-2.29-3.04-3.95-6.6-8.27-16.58-20.78-10.46-27.12,5.3-5.48,15.78-.63,23.43,2.91,.07,.03,.15,.07,.22,.1-.14-.35-.29-.71-.44-1.07-1.23-3-2.5-6.1-2.55-9.76-.01-.83,.36-1.63,1.02-2.15,.65-.52,1.51-.71,2.32-.51,1.32,.32,2.58,.88,3.79,1.51-.26-.73-.48-1.47-.67-2.23-.21-.84,0-1.73,.56-2.4,.56-.66,1.41-1.01,2.27-.95,1.91,.16,3.63,.93,5.17,1.67-.6-.98-1.25-1.79-1.74-2.34-.88-.99-.9-2.46-.07-3.49,2.07-2.54,5.68-1.85,8.87-1.25,.41,.08,.91,.17,1.39,.25-.27-.51-.65-1.17-1.2-2.01-.81-1.25-.46-2.92,.79-3.73,1.25-.81,2.92-.46,3.73,.79,.54,.82,1.05,1.65,1.48,2.48Z"/><path class="b" d="M95.86,468.46c-.21,0-.42-.04-.62-.14"/><g><path class="b" d="M169.3,244.15c-2.65,0-5.26-1.14-6.89-3.17-.86-1.07-2.34-3.6-1.22-7.33-2.99,.82-6.38,.84-8.82-.55-1.58-.9-3.44-2.77-3.34-6.56,.07-2.74,.92-4.87,2.5-6.33,2.54-2.33,6.42-2.46,9.91-2.31-1.66-1.45-3.26-3.18-3.74-5.82-.75-4.16,1.72-9.71,6.14-10.92,5.62-1.54,9.98,2.48,11.66,6.86,.83,2.17,1.12,4.7,.58,6.99,.8-.47,1.68-.9,2.63-1.27,3.72-1.46,7.5-1.64,10.1-.5,3.18,1.4,4.69,3.86,4.03,6.59-.54,2.24-2.47,4.23-4.87,5.37,1.36,1.07,2.43,2.5,2.98,4.11,.88,2.56,.26,5.14-1.69,7.08-1.69,1.68-4.17,2.32-7,1.79-1.57-.29-3.07-.92-4.29-1.74-.82,4.75-3.94,6.52-5.46,7.11-1.04,.4-2.14,.59-3.23,.59Zm-5.12-14.81c.38,0,.76,.15,1.05,.44,.48,.49,.55,1.25,.17,1.83-1.98,2.97-2.23,5.65-.71,7.56,1.5,1.87,4.42,2.59,6.79,1.68,2.67-1.03,4.01-3.79,3.76-7.77-.04-.7,.42-1.34,1.11-1.51,.68-.17,1.39,.18,1.68,.82,.49,1.1,2.42,2.5,4.78,2.94,1.07,.2,3.07,.33,4.41-.99,1.47-1.46,1.35-3.02,.99-4.07-.71-2.07-2.9-3.83-5.08-4.09-.78-.1-1.35-.79-1.28-1.58,.07-.79,.76-1.34,1.54-1.32,3.13,.2,6.13-2.06,6.63-4.12,.32-1.31-.48-2.4-2.37-3.23-1.87-.83-4.89-.61-7.86,.55-2.67,1.04-4.76,2.67-5.45,4.24-.32,.74-1.18,1.08-1.92,.75-.4-.17-.68-.5-.8-.88-.68,.23-1.44-.07-1.77-.73-.36-.72-.07-1.6,.65-1.95,3.26-1.63,3.47-5.72,2.28-8.83-1.26-3.3-4.28-6.15-8.17-5.09-2.77,.76-4.54,4.8-4.04,7.59,.39,2.18,1.99,3.5,3.84,5.03,.74,.61,1.51,1.24,2.21,1.95,.41,.42,.53,1.05,.3,1.6-.23,.54-.76,.9-1.36,.88-.77-.01-1.63-.06-2.52-.11-3.33-.2-7.46-.44-9.53,1.45-1,.92-1.51,2.31-1.56,4.26-.05,1.91,.56,3.2,1.87,3.95,2.5,1.43,6.98,.63,9.6-1.01,.24-.15,.51-.22,.77-.22Z"/><path class="b" d="M179.47,267.73c-.21,0-.42-.04-.62-.14-.73-.34-1.04-1.21-.7-1.94,3.95-8.4,3.41-19.99-1.33-28.19-.4-.7-.16-1.59,.53-1.99,.7-.41,1.59-.16,1.99,.53,5.27,9.12,5.85,21.53,1.44,30.89-.25,.53-.77,.84-1.32,.84Z"/><path class="b" d="M185.93,252.5c-.19,0-.39-.04-.57-.12-.48-.21-.82-.66-.87-1.18-.77-7,4.58-10.66,9.3-13.89,2.03-1.39,3.95-2.7,5.32-4.19,.4-.44,1.03-.58,1.59-.38,.55,.21,.93,.73,.94,1.33,.03,1.13,.17,2.33,.3,3.48,.44,3.81,.94,8.12-2.53,11.33-2.44,2.26-5.28,2.3-7.79,2.33-1.91,.03-3.55,.05-4.78,.99-.26,.2-.57,.3-.89,.3Zm13.02-15.32c-1.12,.89-2.34,1.72-3.53,2.53-3.79,2.59-7.39,5.06-8.01,9,1.35-.38,2.76-.4,4.14-.42,2.27-.03,4.23-.06,5.85-1.56,2.39-2.2,2.03-5.29,1.62-8.86-.03-.23-.05-.47-.08-.7Z"/><path class="b" d="M176.7,264.04h-.68c-3.91-.01-9.25-.02-11.7-4.42-.76-1.37-.99-2.93-1.2-4.31-.3-2.01-.54-3.28-1.6-3.98-.52-.34-.76-.97-.61-1.57,.15-.6,.67-1.04,1.28-1.09,7.24-.67,15.13,5.47,15.95,12.35,.04,.31-.03,.61-.17,.87,.12,.21,.18,.45,.18,.7,0,.8-.66,1.45-1.46,1.45Zm-11.39-12.3c.38,1.02,.54,2.11,.7,3.14,.19,1.24,.37,2.42,.87,3.33,1.49,2.68,5.03,2.89,8.34,2.91-.67-4.39-5.18-8.44-9.91-9.38Z"/><path class="b" d="M172.04,232.09c-.79,0-1.71-.16-2.79-.57-3.72-1.43-5.13-5.47-4.3-8.4,.78-2.74,3.33-4.11,6.48-3.51,.61,.12,1.06,.6,1.16,1.18,2.13,.97,3.66,2.96,4.05,5.31,.34,2.03-.26,3.89-1.61,4.99-.53,.44-1.51,1-2.99,1Zm-2.08-9.71c-.94,0-1.86,.34-2.21,1.54-.47,1.67,.45,4.08,2.53,4.87,1.29,.5,2.32,.51,2.9,.04,.52-.42,.74-1.29,.58-2.26-.19-1.17-.99-2.63-2.66-3.25-.44-.16-.76-.52-.89-.94-.09,0-.17,0-.26,0Z"/></g><g><path class="b" d="M487.64,197.82c-2.16,0-4.29-.93-5.61-2.58-.7-.87-1.91-2.93-1-5.98-2.44,.67-5.2,.68-7.19-.45-1.29-.73-2.8-2.26-2.72-5.34,.06-2.24,.75-3.97,2.04-5.16,2.07-1.9,5.23-2.01,8.08-1.88-1.36-1.18-2.66-2.59-3.05-4.74-.61-3.39,1.4-7.91,5-8.9,4.58-1.25,8.14,2.02,9.5,5.59,.68,1.77,.91,3.83,.48,5.7,.65-.39,1.37-.73,2.14-1.04,3.04-1.19,6.11-1.34,8.23-.41,2.59,1.14,3.82,3.15,3.28,5.37-.44,1.83-2.01,3.45-3.97,4.37,1.11,.87,1.98,2.04,2.43,3.35,.72,2.08,.21,4.19-1.38,5.77-1.37,1.37-3.4,1.89-5.7,1.46-1.28-.24-2.5-.75-3.5-1.42-.66,3.88-3.21,5.32-4.45,5.79-.85,.33-1.74,.48-2.63,.48Zm-4.17-12.07c.31,0,.62,.12,.85,.36,.39,.4,.45,1.02,.14,1.49-1.62,2.42-1.82,4.61-.58,6.16,1.22,1.53,3.6,2.11,5.54,1.37,2.18-.84,3.27-3.09,3.06-6.33-.04-.57,.34-1.09,.9-1.23,.56-.14,1.14,.14,1.37,.67,.4,.9,1.97,2.04,3.9,2.4,.87,.16,2.5,.27,3.59-.81,1.2-1.19,1.1-2.46,.81-3.31-.58-1.69-2.36-3.12-4.14-3.33-.64-.08-1.1-.65-1.04-1.29,.06-.64,.62-1.09,1.25-1.08,2.55,.16,5-1.68,5.4-3.36,.26-1.07-.39-1.96-1.93-2.64-1.53-.67-3.98-.5-6.41,.45-2.18,.85-3.88,2.18-4.44,3.46-.26,.6-.96,.88-1.56,.61-.32-.14-.55-.41-.65-.71-.55,.19-1.17-.06-1.44-.59-.29-.59-.05-1.3,.53-1.59,2.66-1.33,2.83-4.66,1.86-7.19-1.03-2.69-3.49-5.02-6.66-4.15-2.26,.62-3.7,3.92-3.29,6.18,.32,1.78,1.62,2.85,3.13,4.1,.6,.5,1.23,1.01,1.8,1.59,.34,.34,.44,.86,.25,1.3-.19,.44-.62,.73-1.11,.72-.63-.01-1.33-.05-2.06-.09-2.71-.16-6.08-.36-7.76,1.18-.81,.75-1.23,1.88-1.27,3.47-.04,1.56,.46,2.61,1.52,3.22,2.04,1.16,5.69,.52,7.82-.82,.2-.12,.41-.18,.63-.18Z"/><path class="b" d="M495.92,217.04c-.17,0-.34-.04-.51-.11-.59-.28-.85-.99-.57-1.58,3.22-6.85,2.78-16.29-1.08-22.98-.33-.57-.13-1.29,.43-1.62,.57-.33,1.29-.13,1.62,.43,4.29,7.43,4.76,17.55,1.17,25.18-.2,.43-.63,.68-1.08,.68Z"/><path class="b" d="M501.19,204.63c-.16,0-.32-.03-.47-.09-.39-.17-.67-.54-.71-.96-.63-5.7,3.73-8.69,7.58-11.32,1.65-1.13,3.22-2.2,4.34-3.42,.33-.35,.84-.48,1.29-.31,.45,.17,.76,.6,.77,1.08,.02,.92,.14,1.89,.24,2.84,.36,3.1,.77,6.62-2.07,9.24-1.99,1.84-4.31,1.87-6.35,1.9-1.55,.02-2.9,.04-3.9,.81-.21,.16-.47,.24-.72,.24Zm10.61-12.49c-.91,.72-1.9,1.4-2.87,2.07-3.09,2.11-6.03,4.13-6.53,7.33,1.1-.31,2.25-.32,3.38-.34,1.85-.02,3.45-.05,4.77-1.27,1.94-1.8,1.65-4.31,1.32-7.22-.02-.19-.04-.38-.06-.57Z"/><path class="b" d="M493.67,214.03h-.55c-3.18,0-7.54-.02-9.53-3.6-.62-1.11-.81-2.39-.98-3.51-.25-1.64-.44-2.67-1.31-3.24-.42-.28-.62-.79-.5-1.28,.12-.49,.54-.85,1.04-.89,5.9-.55,12.33,4.46,13,10.07,.03,.25-.02,.5-.13,.71,.09,.17,.14,.36,.14,.57,0,.65-.53,1.18-1.19,1.18Zm-9.29-10.02c.31,.83,.44,1.72,.57,2.56,.15,1.01,.3,1.97,.71,2.71,1.21,2.19,4.09,2.36,6.8,2.37-.55-3.58-4.22-6.88-8.08-7.64Z"/><path class="b" d="M489.87,187.99c-.64,0-1.39-.13-2.27-.46-3.04-1.16-4.18-4.46-3.5-6.84,.64-2.23,2.71-3.35,5.28-2.86,.5,.1,.86,.49,.95,.96,1.73,.79,2.98,2.41,3.3,4.33,.28,1.65-.21,3.17-1.31,4.07-.44,.36-1.23,.81-2.44,.81Zm-1.69-7.91c-.76,0-1.52,.28-1.8,1.26-.39,1.36,.37,3.32,2.06,3.97,1.06,.4,1.89,.41,2.36,.03,.42-.34,.6-1.05,.47-1.84-.16-.95-.81-2.14-2.16-2.65-.36-.13-.62-.43-.72-.77-.07,0-.14,0-.21,0Z"/></g><path class="b" d="M76.32,231.74c-3.87,0-6.67-2.37-9.19-4.5-.17-.14-.34-.29-.5-.42-.84,1.28-2.01,2.29-3.45,2.94-2.45,1.1-5.44,.99-8.02-.29-4.87-2.42-5.25-6.29-5.33-10.14-3.11-.31-5.39-2.07-6.4-5-1.52-4.44,.4-10.47,4.12-12.9,1.07-.7,3.51-1.84,6.6-.48,.61-3.59,2.75-6.3,6.15-7.67,5-2.01,11.77-.53,14.79,3.23,1.17,1.46,1.7,3.13,1.6,4.87,3.66-1.39,8-2.12,11.71-.96,2.89,.91,5.06,2.8,6.43,5.64,2.15,4.44,1.9,8.8-.7,11.97-2.18,2.66-5.74,4.07-9.57,3.94,.39,1.93,.22,3.8-.54,5.39-1.01,2.12-2.98,3.6-5.56,4.15-.76,.16-1.48,.24-2.16,.24Zm-10.39-9.69c.38,0,.76,.12,1.08,.35,.87,.63,1.7,1.33,2.51,2.02,2.65,2.24,4.93,4.18,8.18,3.47,1.47-.32,2.48-1.03,3-2.12,.66-1.39,.47-3.29-.52-5.22-.33-.65-.25-1.43,.2-2,.45-.57,1.2-.82,1.91-.64,3.6,.93,7.13,.05,9-2.23,1.67-2.04,1.75-4.89,.23-8.01-.93-1.91-2.31-3.13-4.21-3.73-3.55-1.11-8.17,.2-11.42,1.83,0,.27-.01,.58-.09,.93-.23,1-1.23,1.61-2.22,1.38-.79-.19-1.34-.85-1.42-1.61-.66-.61-.8-1.64-.27-2.4,1.39-2.02,1.5-3.79,.33-5.25-2.01-2.51-7.02-3.52-10.52-2.11-2.92,1.17-4.29,3.75-3.97,7.45,.07,.76-.34,1.48-1.03,1.82-.69,.34-1.51,.22-2.07-.3-1.87-1.73-3.57-2.12-5.05-1.15-2.31,1.5-3.62,5.76-2.65,8.6,.65,1.9,2.15,2.73,4.57,2.53,.51-.05,1.01,.13,1.39,.47,.38,.34,.6,.82,.61,1.33l.02,.97c.06,4.14,.22,6.2,3.29,7.73,1.59,.79,3.41,.88,4.86,.23,.86-.39,1.99-1.21,2.47-2.97,.16-.58,.6-1.05,1.17-1.25,.2-.07,.41-.11,.61-.11Z"/><g><path class="b" d="M3.38,292.49c-.29,.19-.65,.3-1.04,.31-.24,0-.5-.02-.75-.03v2.63c.35-1.19,.97-2.17,1.78-2.91Z"/><path class="b" d="M6.72,456.79c-.89,3.15-2.67,6.18-5.13,8.5v4.09c4.02-2.84,6.9-7.18,8.18-11.73,1.88-6.67,.75-15.8-8.18-20.5v3.68c5.9,3.99,6.63,10.63,5.13,15.96Z"/><path class="b" d="M1.92,432.95c.56,0,1.1-.3,1.39-.82,.7-1.27,1.12-2.6,1.52-3.88,.42-1.33,.81-2.58,1.48-3.66,.46-.75,.24-1.72-.51-2.19-.74-.46-1.72-.24-2.19,.5-.89,1.42-1.36,2.93-1.82,4.39-.07,.22-.13,.43-.2,.64v4.97c.11,.02,.21,.04,.32,.04Z"/><path class="b" d="M29.39,414.77c.65-.59,.69-1.6,.1-2.24-.59-.65-1.59-.69-2.24-.1-4.99,4.55-9.52,9.83-13.9,14.92-2.45,2.85-4.98,5.79-7.52,8.52-.6,.64-.56,1.65,.08,2.24,.31,.28,.69,.42,1.08,.42,.42,0,.85-.17,1.16-.5,2.58-2.77,5.13-5.74,7.6-8.62,4.32-5.03,8.79-10.23,13.63-14.65Z"/><path class="b" d="M12.07,442.59c.38,0,.76-.13,1.06-.41,1.82-1.64,4.19-2.45,6.69-3.3,2.35-.8,4.78-1.62,6.9-3.21,.7-.53,.85-1.52,.32-2.22-.52-.7-1.52-.84-2.22-.32-1.72,1.28-3.81,1.99-6.02,2.75-2.7,.92-5.49,1.86-7.8,3.95-.65,.59-.7,1.59-.11,2.24,.31,.35,.75,.52,1.18,.52Z"/><path class="b" d="M46.6,445.01c-2.22,0-4.66-.1-7.25-.19-8.66-.31-18.47-.67-25.76,1.8-.83,.28-1.28,1.18-1,2.01,.22,.66,.84,1.08,1.5,1.08,.17,0,.34-.03,.51-.08,6.74-2.28,16.24-1.93,24.63-1.63,2.61,.09,5.08,.18,7.35,.19h0c.87,0,1.58-.71,1.59-1.58,0-.88-.71-1.59-1.58-1.59Z"/><path class="b" d="M21.47,458.33c4.37-.02,8.89-.04,12.9,1.43,.18,.07,.36,.1,.55,.1,.65,0,1.25-.4,1.49-1.04,.3-.82-.12-1.74-.94-2.04-4.54-1.67-9.36-1.64-14.01-1.62-.49,0-.98,0-1.47,0-.1,0-.17,.03-.31,0-.87,0-1.59,.71-1.59,1.58,0,.87,.71,1.59,1.58,1.59,.59,0,1.19,0,1.79,0Z"/><path class="b" d="M42.22,472.08c-10.54-5.18-20.02-8.98-28.19-11.27-.84-.24-1.72,.26-1.96,1.1-.24,.85,.25,1.72,1.1,1.96,7.99,2.24,17.29,5.96,27.65,11.07,.23,.11,.46,.16,.7,.16,.58,0,1.15-.33,1.42-.89,.39-.79,.06-1.74-.72-2.12Z"/><path class="b" d="M19.89,475.13c-1.43-.72-2.86-1.57-4.25-2.4-1.91-1.14-3.88-2.32-5.99-3.22-.81-.34-1.74,.03-2.08,.83-.35,.8,.03,1.74,.83,2.08,1.91,.82,3.71,1.89,5.61,3.03,1.44,.86,2.92,1.75,4.46,2.51,.23,.12,.47,.17,.71,.17,.58,0,1.14-.32,1.42-.88,.39-.79,.07-1.74-.71-2.13Z"/><path class="b" d="M1.71,476.04c4.79,5.79,8.34,14.46,10.9,21.37,.24,.64,.84,1.03,1.49,1.03,.18,0,.37-.03,.55-.1,.82-.3,1.24-1.22,.94-2.04-2.65-7.15-6.34-16.14-11.44-22.29-.56-.68-1.56-.77-2.23-.21-.13,.11-.24,.24-.33,.38v1.68c.04,.06,.07,.12,.11,.17Z"/><path class="b" d="M4.47,381.52c1.64,2.74,3.19,4.57,5.37,4.61,2.23,.08,3.42-1.75,4.47-3.33,.55-.84,1.12-1.69,1.82-2.4,.2,.4,.35,.77,.37,1.07,.07,1.02,.73,1.9,1.69,2.24,.96,.34,2.03,.08,2.73-.67,1.65-1.78,1.88-1.66,3.4-.87,1.62,.84,4.32,2.24,8.1,.28,1.25-.65,1.74-2.19,1.09-3.45-.65-1.25-2.19-1.74-3.45-1.09-1.42,.74-2.04,.42-3.39-.28-1.84-.95-3.94-1.76-6.48-.47-.23-.42-.43-.81-.5-1.1-.18-.69-.65-1.28-1.28-1.61-.63-.33-1.38-.39-2.05-.14-3.37,1.21-5.14,3.9-6.31,5.68-.07,.11-.15,.23-.24,.36-.25-.34-.56-.8-.95-1.46-2.79-4.64-3.94-10.62-5.06-16.41-.62-3.22-1.27-6.53-2.2-9.64v22.33c.75,2.21,1.67,4.35,2.87,6.34Z"/><path class="b" d="M11.51,277.64c1.51,3.94,1.24,9.12-2.9,11.2-.76,.38-1.14,1.21-.98,2.01,.69-.03,1.41,.03,2.15,.17,.78,.15,1.35,.76,1.47,1.5,.48,.22,.92,.49,1.35,.79,.37-.19,.68-.49,.86-.9,.87-1.99,3.52-4.05,6.91-5.38,3.77-1.47,7.59-1.74,9.97-.69,2.4,1.06,3.41,2.44,3,4.1-.63,2.61-4.45,5.45-8.41,5.22-1-.08-1.86,.68-1.95,1.68-.09,1,.63,1.88,1.62,2,2.77,.33,5.54,2.56,6.45,5.19,.46,1.33,.61,3.3-1.26,5.16-1.69,1.68-4.23,1.51-5.59,1.26-3-.56-5.44-2.33-6.07-3.73-.37-.82-1.26-1.25-2.13-1.04-.87,.21-1.46,1.02-1.4,1.91,.31,5.05-1.38,8.55-4.77,9.86-2.84,1.1-6.28,.33-8.26-1.76v4.58c1.67,.89,3.57,1.38,5.49,1.38,1.39,0,2.78-.24,4.1-.75,1.6-.62,4.62-2.29,6.18-6.33-.24-.47-.48-.94-.75-1.4-.51-.88-.21-2.02,.68-2.53,.88-.51,2.02-.21,2.53,.68,.38,.65,.73,1.32,1.06,1.99,.85,.33,1.74,.6,2.66,.77,3.58,.66,6.73-.14,8.87-2.27,2.48-2.46,3.26-5.74,2.14-8.98-.7-2.04-2.06-3.85-3.78-5.21,3.04-1.44,5.48-3.96,6.17-6.81,.83-3.46-1.08-6.58-5.11-8.36-3.29-1.45-8.08-1.21-12.8,.63-1.2,.47-2.32,1.01-3.34,1.61,.68-2.91,.31-6.12-.74-8.87-1.98-5.18-6.93-9.96-13.37-9v3.77c4.72-1.01,8.37,2.5,9.92,6.55Z"/><path class="b" d="M3.38,292.49c.1-.09,.19-.17,.29-.25,.16-.16,.3-.34,.4-.56,.29-.69,.14-1.49-.38-2.02-.67-.68-1.38-1.29-2.09-1.88v5.01c.25,0,.51,.02,.75,.03,.39-.01,.74-.12,1.04-.31Z"/><path class="b" d="M1.93,303.91c-.1-.1-.21-.19-.33-.27v3.48c.17-.3,.34-.6,.54-.9,.48-.73,.4-1.69-.21-2.32Z"/><path class="b" d="M17.37,315.06c5.3,10.29,5.74,24.17,.94,34.36-.44,.92-.04,2.02,.88,2.46,.25,.12,.52,.18,.79,.18,.69,0,1.36-.39,1.67-1.06,5.28-11.2,4.91-25.85-.76-37.19-1-.39-1.94-.87-2.78-1.43-.17,1-.43,1.89-.74,2.69Z"/><path class="b" d="M17.3,311.13c-.88,.51-1.19,1.64-.68,2.53,.26,.46,.5,.93,.75,1.4,.31-.8,.57-1.69,.74-2.69,.84,.56,1.78,1.04,2.78,1.43-.34-.67-.69-1.34-1.06-1.99-.51-.88-1.64-1.19-2.53-.68Z"/><path class="b" d="M48.09,309.35c-.02-.75-.49-1.42-1.2-1.68-.71-.27-1.5-.08-2.01,.48-1.74,1.89-4.17,3.55-6.75,5.32-5.99,4.1-12.77,8.75-11.79,17.62,.07,.66,.5,1.24,1.11,1.5,.23,.1,.48,.15,.73,.15,.4,0,.8-.13,1.12-.38,1.56-1.2,3.65-1.22,6.07-1.26,3.18-.04,6.79-.09,9.88-2.96,4.41-4.07,3.77-9.54,3.22-14.37-.17-1.46-.35-2.98-.38-4.41Zm-5.34,16.07c-2.06,1.9-4.54,1.94-7.42,1.97-1.75,.02-3.54,.05-5.26,.53,.78-4.99,5.36-8.13,10.16-11.41,1.51-1.03,3.05-2.09,4.47-3.21,.03,.3,.07,.6,.1,.89,.52,4.53,.98,8.43-2.05,11.23Z"/><path class="b" d="M15.6,347.37h.87c1.02,0,1.84-.82,1.85-1.84,0-.32-.08-.62-.22-.89,.18-.32,.26-.7,.21-1.1-.91-7.62-8.66-14.5-16.71-15.58v15.03c3.36,4.34,9.45,4.37,14.01,4.38Zm-1.01-3.7c-4.21-.03-8.7-.29-10.58-3.7-.64-1.15-.86-2.64-1.1-4.22-.2-1.3-.4-2.69-.88-3.98,6,1.19,11.72,6.33,12.57,11.9Z"/><path class="b" d="M3.38,292.49c-.82,.75-1.43,1.73-1.78,2.91v4.61c.68,2.56,2.49,4.98,5.43,6.11,1.37,.52,2.55,.72,3.54,.72,1.88,0,3.11-.71,3.79-1.26,1.7-1.39,2.47-3.76,2.04-6.33-.41-2.45-1.8-4.58-3.78-5.95-.47,.24-1.04,.28-1.57,.05-.5-.22-.86-.63-1.02-1.11-.86,.29-1.82-.09-2.24-.93-.08-.15-.12-.31-.15-.47-1.55,.06-2.9,.55-3.96,1.4-.09,.09-.18,.18-.29,.25Zm1.75,3.99c.43-1.53,1.61-1.96,2.8-1.96,.11,0,.22,0,.33,.01,.16,.53,.56,.99,1.13,1.2,2.11,.78,3.12,2.64,3.37,4.12,.2,1.23-.08,2.33-.73,2.86-.73,.6-2.03,.58-3.67-.05-2.64-1.01-3.82-4.07-3.22-6.18Z"/><path class="b" d="M10.03,292.24c.16,.48,.51,.89,1.02,1.11,.53,.23,1.1,.19,1.57-.05-.43-.3-.87-.57-1.35-.79-.13-.73-.7-1.35-1.47-1.5-.75-.14-1.47-.2-2.15-.17,.03,.16,.08,.32,.15,.47,.42,.83,1.38,1.21,2.24,.93Z"/><path class="b" d="M3.38,292.49c.11-.07,.2-.16,.29-.25-.1,.08-.2,.16-.29,.25Z"/><path class="b" d="M1.24,315.81c.11,.13,.24,.25,.36,.37v-9.05c-1.99,3.4-2.14,6.46-.36,8.68Z"/><path class="b" d="M1.15,432.75c.14,.08,.29,.13,.44,.16v-4.97c-.3,.95-.62,1.84-1.07,2.66-.42,.77-.14,1.73,.62,2.16Z"/><path class="b" d="M1.6,475.87v-1.68c-.32,.51-.33,1.16,0,1.68Z"/><path class="b" d="M1.58,295.47c-.4,1.4-.39,3,.02,4.54v-4.61s-.02,.04-.02,.06Z"/></g><g><path class="b" d="M514.69,435.77h-.04c-3.05,0-5.89,1.1-8.29,3.24-4.61,4.11-6.62,11.11-6.56,16.23,.15,14.27,15.2,16.53,20.14,17.27,.96,.14,1.89,.21,2.8,.21,3.93,0,7.41-1.28,10.31-3.33v-4.09c-3.21,3.02-7.57,4.83-12.64,4.07-11.81-1.77-17.35-6.27-17.44-14.16-.05-4.4,1.63-10.39,5.5-13.83,1.67-1.49,3.55-2.29,5.62-2.42,.3,.1,.63,.11,.96,.01,.02,0,.04-.01,.05-.01,.27,.01,.54,.04,.81,.07,.6,.08,1.16-.19,1.49-.64,4.53-.91,9.26-.59,12.81,.91,1.06,.45,2.01,.97,2.85,1.54v-3.68c-.51-.27-1.04-.54-1.61-.77-4.74-2.01-10.97-2.23-16.76-.6Z"/><path class="b" d="M525.2,492.25c-.02,.88,.67,1.6,1.55,1.62h.04c.86,0,1.56-.68,1.59-1.55,.06-2.49-.24-4.85-.54-7.13-.21-1.6-.4-3.11-.48-4.67-.04-.88-.78-1.52-1.67-1.5-.87,.04-1.55,.79-1.5,1.67,.09,1.68,.3,3.33,.5,4.91,.29,2.26,.57,4.4,.51,6.64Z"/><path class="b" d="M512.57,506.57s.07,0,.11,0c.87-.06,1.53-.82,1.47-1.69-.29-4.15,.93-8.31,2.22-12.71,1.25-4.27,2.54-8.68,2.36-13.14-.04-.87-.78-1.55-1.66-1.52-.87,.04-1.55,.78-1.52,1.65,.17,3.94-1,7.91-2.23,12.11-1.31,4.48-2.67,9.1-2.34,13.82,.06,.83,.75,1.47,1.58,1.47Z"/><path class="b" d="M501.69,487.74c-.55,.68-.45,1.68,.23,2.23,.29,.24,.65,.36,1,.36,.46,0,.92-.2,1.23-.59,1.14-1.4,1.94-3.04,2.72-4.63,.93-1.91,1.82-3.72,3.14-4.78,.68-.55,.79-1.55,.25-2.23-.55-.68-1.55-.79-2.23-.24-1.87,1.5-2.96,3.72-4,5.86-.73,1.49-1.42,2.9-2.33,4.02Z"/><path class="b" d="M496.53,476.54c-.49,.54-.95,1.05-1.41,1.48-4.39,4.16-8.86,7.02-14.02,10.34l-.87,.56c-.74,.47-.95,1.46-.48,2.19,.3,.47,.82,.73,1.34,.73,.29,0,.59-.08,.86-.25l.87-.56c5.08-3.26,9.88-6.34,14.49-10.71,.54-.51,1.07-1.09,1.58-1.65,1.48-1.63,2.86-3.16,4.46-3.08,.86,.05,1.62-.62,1.67-1.49,.05-.88-.62-1.63-1.5-1.67-3.08-.2-5.25,2.21-6.98,4.12Z"/><path class="b" d="M489.12,470c-1.58,.65-3.07,1.25-4.64,1.41-.87,.09-1.51,.87-1.42,1.74,.08,.82,.77,1.42,1.58,1.42,.05,0,.11,0,.16,0,2.02-.21,3.79-.93,5.51-1.63,1.98-.81,3.85-1.57,5.88-1.41,.87,.05,1.64-.58,1.71-1.46,.07-.87-.58-1.64-1.46-1.71-2.77-.22-5.09,.73-7.33,1.64Z"/><path class="b" d="M493.21,464.32c.19,.07,.38,.11,.57,.11,.64,0,1.24-.38,1.48-1.01,.32-.82-.09-1.74-.9-2.05-6.6-2.57-18.95-3.07-25.42-1.05-.84,.26-1.3,1.15-1.04,1.99,.26,.83,1.15,1.3,1.99,1.04,5.81-1.82,17.37-1.34,23.32,.98Z"/><path class="b" d="M491.39,450.66c-3.4-1.92-6.92-3.9-11.24-4.13-.87-.02-1.62,.63-1.67,1.5-.05,.88,.63,1.62,1.5,1.67,3.58,.19,6.62,1.91,9.84,3.73l1.14,.65c.25,.13,.51,.2,.77,.2,.56,0,1.1-.3,1.39-.82,.43-.77,.15-1.73-.62-2.16l-1.13-.63Z"/><path class="b" d="M472.63,425.6c7.43,4.67,17.78,11.69,21.8,18.74,.29,.51,.83,.8,1.38,.8,.27,0,.54-.07,.79-.21,.76-.43,1.02-1.41,.59-2.17-4.38-7.66-15.15-15-22.87-19.85-.74-.47-1.72-.24-2.19,.5-.47,.74-.24,1.72,.5,2.19Z"/><path class="b" d="M500.24,426.88c-.31-.76-.62-1.52-.94-2.25-.35-.8-1.29-1.16-2.09-.81-.8,.36-1.16,1.29-.81,2.09,.31,.7,.61,1.43,.91,2.17,1.25,3.06,2.54,6.23,5.06,8.52,.3,.28,.69,.41,1.07,.41,.43,0,.86-.18,1.18-.52,.59-.65,.54-1.65-.11-2.24-1.99-1.8-3.14-4.63-4.26-7.37Z"/><path class="b" d="M510.09,402.81c-.07-.87-.83-1.54-1.7-1.47-.87,.07-1.53,.82-1.47,1.7,.09,1.19,.17,2.49,.25,3.87,.5,8.29,1.12,18.61,4.51,24.71,.29,.52,.83,.82,1.39,.82,.26,0,.52-.07,.77-.2,.77-.43,1.04-1.39,.62-2.16-3.04-5.47-3.67-15.81-4.12-23.36-.08-1.4-.16-2.71-.25-3.91Z"/><path class="b" d="M522.72,432.06h.06c1.22-.04,2.19-1.05,2.15-2.28-.14-5.03,.44-10.08,1.01-14.96,.17-1.52,.35-3.04,.51-4.56,.13-1.22-.76-2.3-1.98-2.43-1.23-.12-2.31,.76-2.43,1.98-.15,1.5-.33,3-.5,4.5-.58,5.03-1.18,10.24-1.03,15.59,.03,1.2,1.02,2.15,2.21,2.15Z"/><path class="b" d="M531.46,350.42c-.64-.3-1.38-.33-2.03-.07-9.59,3.8-17.18,27.25-17.29,35.65-.02,1.41,1.11,2.57,2.52,2.59h.03c1.4,0,2.54-1.12,2.55-2.52,.09-6.87,5.71-23.51,11.61-29.26,.51,2.12,.94,4.34,1.39,6.64,.76,3.93,1.53,7.94,2.82,11.73v-22.33c-.09-.3-.16-.61-.26-.9-.22-.67-.7-1.23-1.34-1.53Z"/><path class="b" d="M523.85,281.46c.61,3.35,2.63,5.55,4.74,7.38-4.43-.2-9.35-.02-12.58,2.93-2.01,1.85-3.08,4.55-3.17,8.03-.13,4.8,2.23,7.17,4.23,8.32,3.09,1.76,7.39,1.74,11.19,.7-1.42,4.74,.47,7.95,1.55,9.3,.88,1.1,2,1.98,3.24,2.64v-4.58c-.12-.12-.25-.24-.36-.37-1.78-2.22-1.63-5.28,.36-8.68v-3.48c-.3-.19-.65-.29-.99-.29s-.68,.09-.98,.28c-3.31,2.08-9,3.09-12.17,1.28-1.66-.95-2.44-2.58-2.37-5.01,.06-2.48,.71-4.24,1.98-5.4,2.62-2.41,7.87-2.09,12.09-1.84,.86,.05,1.67,.09,2.45,.12v-5.01c-.23-.2-.47-.4-.7-.59-2.35-1.94-4.37-3.61-4.87-6.37-.63-3.53,1.6-8.66,5.12-9.62,.15-.04,.3-.06,.45-.1v-3.77c-.47,.07-.94,.16-1.42,.3-5.61,1.53-8.74,8.57-7.79,13.85Z"/><path class="b" d="M529.54,327.87c-.78,.07-1.43,.63-1.63,1.39-.19,.76,.12,1.56,.77,2,1.34,.89,1.65,2.5,2.03,5.04,.26,1.75,.56,3.73,1.53,5.46,.25,.45,.53,.85,.82,1.23v-15.03c-1.18-.16-2.36-.2-3.53-.09Z"/></g><g><path class="b" d="M102.89,538.32c-.35-.52-.93-.8-1.51-.8-.32,0-.65,.08-.95,.26-2.32,1.4-9.11,2.39-12.49,.88-1.24-.55-1.49-1.21-1.57-1.65-.3-1.62,.15-2.35,.52-2.76,2.14-2.38,9.34-1.83,12.42-1.59,.51,.04,.97,.07,1.35,.1,.82,.05,1.53-.43,1.82-1.17,.28-.75,.06-1.59-.57-2.09-1.55-1.23-3.28-2.3-4.96-3.34-3.72-2.3-7.24-4.47-8.8-8.25-.95-2.29-.96-4.67-.03-6.7,.96-2.09,2.82-3.68,5.24-4.49,4.63-1.54,11.54-.05,14.06,4.56,2.25,4.12,.89,9.93-.3,15.06-.35,1.49-.68,2.9-.92,4.25-.18,.99,.49,1.94,1.48,2.12,.12,.02,.25,.03,.37,.03,.13,.35,.37,.65,.7,.87,.84,.55,1.98,.32,2.53-.53,1.67-2.54,8.56-2.58,15.37-.1,4.3,1.57,8.49,4.17,10.27,7.13h4.05c-1.7-4.83-7.44-8.52-13.07-10.57-3.95-1.44-8.48-2.28-12.31-1.98-.84,.51-1.67,1.03-2.47,1.54-1.27,.8-2.46,1.56-3.64,2.22-.28,.16-.59,.24-.9,.24-.64,0-1.26-.34-1.6-.93-.5-.88-.18-2,.7-2.49,.64-.36,1.3-.76,1.98-1.19-.57-.54-.75-1.41-.37-2.15l.24-.46c.95-1.87,1.86-3.66,2.66-5.44,.29-3.27,0-6.5-1.57-9.38-3.43-6.28-12.3-8.31-18.43-6.28-3.4,1.13-6.03,3.42-7.41,6.44-1.36,2.96-1.37,6.38-.03,9.62,1.87,4.54,5.64,7.1,9.42,9.45-3.78,.01-7.81,.6-10.01,3.05-.94,1.05-1.95,2.91-1.4,5.87,.13,.73,.46,1.6,1.13,2.44h19.13c.26-.57,.23-1.24-.15-1.79Z"/><path class="b" d="M112.56,526.47c-.32,.63-.97,1-1.63,1-.1,0-.21-.02-.31-.03-.13,.58-.27,1.15-.39,1.7,1.45-.91,3.31-1.41,5.37-1.57,4.35-2.63,9.03-4.88,13.39-3.15,.94,.37,2-.09,2.37-1.03,.37-.94-.09-2-1.03-2.38-5.96-2.35-11.81,.49-16.79,3.53-.25,.49-.49,.98-.75,1.47l-.24,.47Z"/><path class="b" d="M110.62,527.43c-.18-.03-.35-.08-.52-.17-.16-.08-.3-.19-.43-.31-.68,.42-1.35,.83-1.98,1.19-.88,.5-1.19,1.61-.7,2.49,.34,.6,.96,.93,1.6,.93,.3,0,.61-.08,.9-.24,1.17-.66,2.37-1.42,3.64-2.22,.81-.51,1.64-1.04,2.47-1.54-2.06,.16-3.92,.65-5.37,1.57,.12-.55,.26-1.12,.39-1.7Z"/><path class="b" d="M111.17,526.01c.77-.48,1.56-.99,2.38-1.48,2.96-5.86,5.55-11.57,5.07-18.92-.07-1.01-.94-1.77-1.95-1.7-1.01,.07-1.77,.94-1.71,1.95,.32,4.86-.91,8.93-2.76,13.05-.21,2.45-.74,4.91-1.29,7.28,.09-.06,.17-.11,.25-.16Z"/><path class="b" d="M109.3,524.8c-.38,.74-.2,1.61,.37,2.15,.41-.25,.82-.51,1.24-.78,.55-2.36,1.07-4.83,1.29-7.28-.8,1.78-1.71,3.58-2.66,5.44l-.24,.46Z"/><path class="b" d="M110.91,526.17c-.08,.33-.15,.67-.23,1-.02,.09-.04,.17-.06,.26,.1,.02,.2,.03,.31,.03,.67,0,1.31-.36,1.63-1l.24-.47c.25-.49,.5-.98,.75-1.47-.81,.5-1.61,1-2.38,1.48-.09,.05-.17,.1-.25,.16Z"/><path class="b" d="M110.62,527.43c.02-.09,.04-.17,.06-.26,.08-.33,.15-.66,.23-1-.42,.27-.83,.53-1.24,.78,.13,.12,.26,.23,.43,.31,.17,.09,.35,.13,.52,.17Z"/><path class="b" d="M445.15,538.97l-.02-.98c0-.51-.23-.99-.61-1.33-.38-.34-.89-.52-1.39-.47-2.42,.2-3.92-.63-4.57-2.53-.97-2.83,.34-7.09,2.65-8.6,1.48-.96,3.18-.57,5.05,1.15,.56,.52,1.39,.64,2.07,.3,.68-.34,1.09-1.06,1.03-1.82-.33-3.71,1.04-6.28,3.96-7.45,3.5-1.41,8.51-.4,10.52,2.11,1.17,1.46,1.06,3.23-.33,5.25-.53,.77-.4,1.79,.27,2.41,.08,.76,.63,1.43,1.42,1.61,.99,.23,1.99-.39,2.22-1.38,.08-.35,.1-.66,.1-.93,3.25-1.62,7.87-2.94,11.42-1.82,1.91,.6,3.29,1.82,4.21,3.73,1.52,3.13,1.44,5.97-.23,8.01-1.87,2.28-5.4,3.16-9,2.23-.71-.18-1.45,.07-1.91,.63-.24,.3-.37,.65-.39,1.02h12.55c.59-.46,1.14-.96,1.61-1.54,2.59-3.17,2.85-7.54,.7-11.97-1.38-2.84-3.54-4.74-6.43-5.64-3.71-1.16-8.05-.43-11.71,.96,.1-1.75-.44-3.41-1.6-4.87-3.01-3.76-9.78-5.24-14.78-3.23-3.41,1.37-5.55,4.08-6.16,7.67-3.09-1.36-5.53-.21-6.6,.48-3.72,2.43-5.65,8.45-4.12,12.9,1.01,2.94,3.29,4.7,6.4,5,0,.08,0,.16,0,.24h3.7c-.01-.36-.02-.74-.02-1.14Z"/></g><g><path class="b" d="M87.67,11.08c2.91,1.31,7.1,1.31,10.62,.67-.69,1.85-1.06,3.87-1.13,5.65-.15,3.66,.84,6.65,2.8,8.41,1.62,1.47,3.07,1.94,4.27,1.94,.74,0,1.37-.18,1.89-.41,2.94-1.32,4.48-5.65,5.12-9.25,5.98,4.63,15.92,7.84,22.96,5.69,3.41-1.04,7.64-3.73,8.46-10.71,.16-1.37-.02-2.66-.45-3.89h-4.05c.67,1.11,1.01,2.28,.87,3.46-.48,4.02-2.46,6.59-5.89,7.64-6.93,2.11-17.68-2.24-21.96-7.23-.5-.58-1.31-.79-2.03-.52-.72,.27-1.19,.96-1.19,1.73,.03,3.63-1.54,8.94-3.34,9.75-.54,.24-1.28-.06-2.21-.9-1.12-1.01-1.7-3.03-1.6-5.55,.13-3.21,1.38-6.5,2.9-7.67,.25-.19,.43-.43,.55-.7h-19.13c.56,.7,1.36,1.36,2.54,1.89Z"/><path class="b" d="M448.03,19.09c2.57,1.28,5.57,1.39,8.02,.29,1.44-.64,2.61-1.65,3.45-2.94,.17,.14,.33,.28,.5,.42,2.52,2.13,5.32,4.5,9.18,4.5,.69,0,1.41-.07,2.16-.24,2.58-.56,4.56-2.03,5.56-4.16,.75-1.59,.93-3.46,.54-5.38,3,.1,5.83-.75,7.96-2.4h-12.55c-.03,.33,.03,.67,.19,.98,.99,1.93,1.18,3.83,.52,5.22-.52,1.09-1.53,1.81-3,2.12-3.25,.71-5.54-1.23-8.18-3.47-.8-.68-1.64-1.39-2.51-2.02-.32-.23-.7-.35-1.08-.35-.21,0-.41,.04-.61,.11-.57,.2-1.01,.67-1.17,1.25-.48,1.75-1.61,2.58-2.47,2.97-1.45,.65-3.27,.57-4.86-.23-2.77-1.38-3.17-3.2-3.27-6.59h-3.7c.09,3.77,.56,7.53,5.32,9.9Z"/></g><g><path class="b" d="M289.44,326.29c3.92-2.84,6.73-7.11,8-11.58,1.87-6.62,.75-15.66-8-20.4v-.23c-.51-.27-1.04-.53-1.61-.78-4.74-2.01-10.97-2.23-16.76-.6h-.04c-3.05,0-5.89,1.1-8.28,3.23-4.61,4.11-6.62,11.11-6.56,16.23,.15,14.27,15.2,16.53,20.14,17.26,.96,.14,1.89,.21,2.8,.21,3.93,0,7.41-1.28,10.31-3.33v-.02Zm-12.65,0c-11.81-1.77-17.35-6.27-17.43-14.16-.05-4.4,1.63-10.39,5.5-13.83,1.67-1.49,3.55-2.29,5.62-2.41,.3,.1,.63,.11,.96,.01,.02,0,.04-.01,.05-.02,.27,.01,.54,.04,.81,.07,.6,.08,1.16-.19,1.49-.64,4.53-.91,9.26-.59,12.81,.91,.99,.42,1.87,.9,2.66,1.42v.23c5.91,3.99,6.63,10.63,5.13,15.96-.89,3.15-2.67,6.19-5.13,8.5v.05c-3.19,2.92-7.48,4.65-12.46,3.91Z"/><path class="b" d="M283.73,337.46c-.04-.88-.78-1.52-1.67-1.5-.87,.05-1.55,.79-1.5,1.67,.09,1.69,.3,3.33,.5,4.92,.29,2.26,.57,4.4,.51,6.64-.02,.88,.67,1.6,1.55,1.63,.01,0,.03,0,.04,0,.86,0,1.56-.68,1.59-1.55,.06-2.49-.24-4.85-.54-7.13-.21-1.6-.4-3.11-.48-4.67Z"/><path class="b" d="M273.44,334.44c-.87,.04-1.55,.78-1.52,1.65,.17,3.94-1,7.91-2.23,12.11-1.31,4.48-2.67,9.1-2.34,13.82,.06,.84,.75,1.48,1.58,1.48,.04,0,.08,0,.11,0,.88-.06,1.53-.82,1.47-1.69-.29-4.15,.93-8.31,2.22-12.71,1.25-4.27,2.54-8.68,2.35-13.14-.04-.88-.78-1.56-1.65-1.52Z"/><path class="b" d="M264.4,334.78c-1.87,1.5-2.96,3.72-4,5.86-.73,1.49-1.42,2.9-2.33,4.02-.55,.68-.45,1.68,.23,2.23,.29,.24,.65,.35,1,.35,.46,0,.92-.2,1.23-.58,1.14-1.4,1.94-3.04,2.72-4.63,.93-1.91,1.82-3.72,3.14-4.78,.68-.55,.79-1.55,.25-2.23-.55-.68-1.55-.79-2.23-.24Z"/><path class="b" d="M261.39,331.03c.05-.87-.62-1.62-1.5-1.67-3.08-.19-5.25,2.2-6.98,4.12-.49,.54-.95,1.05-1.41,1.48-4.39,4.16-8.85,7.02-14.02,10.34l-.87,.56c-.74,.47-.95,1.46-.48,2.19,.3,.47,.82,.73,1.34,.73,.29,0,.59-.08,.86-.25l.87-.56c5.08-3.26,9.88-6.33,14.49-10.7,.54-.51,1.07-1.1,1.58-1.66,1.48-1.63,2.86-3.15,4.46-3.08,.86,.06,1.62-.62,1.67-1.5Z"/><path class="b" d="M245.49,326.94c-1.58,.64-3.07,1.25-4.64,1.41-.87,.09-1.5,.87-1.41,1.74,.08,.82,.77,1.43,1.58,1.43,.05,0,.11,0,.16,0,2.02-.21,3.8-.93,5.51-1.63,1.98-.81,3.85-1.57,5.88-1.41,.86,.05,1.64-.58,1.7-1.46,.07-.87-.58-1.64-1.46-1.71-2.77-.22-5.09,.73-7.33,1.64Z"/><path class="b" d="M249.58,321.25c.19,.07,.38,.11,.57,.11,.64,0,1.24-.38,1.48-1.01,.32-.82-.09-1.74-.9-2.05-6.6-2.57-18.95-3.07-25.42-1.05-.84,.26-1.3,1.15-1.04,1.99,.26,.84,1.15,1.3,1.99,1.04,5.82-1.82,17.37-1.33,23.32,.98Z"/><path class="b" d="M247.77,307.6c-3.4-1.92-6.92-3.91-11.24-4.13-.87-.02-1.62,.63-1.67,1.5-.05,.87,.62,1.62,1.5,1.67,3.57,.19,6.62,1.9,9.84,3.73l1.14,.64c.25,.14,.51,.2,.77,.2,.56,0,1.1-.29,1.39-.82,.43-.76,.15-1.73-.62-2.16l-1.13-.63Z"/><path class="b" d="M229,282.53c7.43,4.67,17.78,11.69,21.81,18.73,.29,.51,.83,.8,1.38,.8,.27,0,.54-.07,.79-.21,.76-.43,1.02-1.4,.59-2.16-4.38-7.66-15.15-15-22.87-19.85-.74-.47-1.72-.25-2.19,.5-.47,.74-.24,1.72,.5,2.19Z"/><path class="b" d="M253.67,285.01c1.25,3.06,2.54,6.23,5.06,8.52,.31,.28,.69,.41,1.07,.41,.43,0,.86-.17,1.18-.52,.59-.65,.54-1.65-.11-2.24-1.99-1.8-3.14-4.64-4.26-7.37-.31-.76-.62-1.52-.94-2.25-.35-.8-1.29-1.17-2.09-.81-.8,.35-1.16,1.29-.81,2.09,.31,.7,.61,1.43,.91,2.17Z"/><path class="b" d="M268.06,288.56c.29,.52,.83,.81,1.39,.81,.26,0,.52-.06,.77-.2,.77-.43,1.04-1.39,.62-2.16-3.04-5.47-3.67-15.81-4.12-23.36-.08-1.4-.16-2.71-.25-3.91-.06-.88-.83-1.54-1.7-1.47-.87,.06-1.53,.82-1.47,1.7,.09,1.19,.17,2.49,.25,3.87,.5,8.29,1.12,18.6,4.52,24.71Z"/><path class="b" d="M279.1,288.99h.06c1.22-.04,2.19-1.05,2.15-2.28-.14-5.03,.44-10.08,1.01-14.96,.18-1.52,.35-3.04,.51-4.56,.12-1.22-.76-2.31-1.98-2.43-1.23-.12-2.31,.76-2.43,1.98-.15,1.5-.33,3-.5,4.5-.58,5.03-1.18,10.24-1.03,15.59,.03,1.2,1.02,2.15,2.21,2.15Z"/><path class="b" d="M290.96,289.18c.7-1.28,1.12-2.6,1.52-3.88,.42-1.33,.81-2.58,1.48-3.66,.46-.74,.24-1.72-.51-2.19-.74-.46-1.72-.24-2.19,.51-.89,1.42-1.36,2.93-1.82,4.39-.07,.22-.14,.43-.2,.64v4.97c.11,.02,.21,.04,.32,.04,.56,0,1.1-.3,1.39-.82Z"/><path class="b" d="M293.57,295.16c.31,.28,.69,.42,1.08,.42,.43,0,.85-.17,1.16-.51,2.58-2.77,5.13-5.74,7.6-8.61,4.32-5.03,8.79-10.23,13.63-14.65,.65-.59,.69-1.59,.1-2.24-.59-.65-1.59-.69-2.24-.1-4.99,4.55-9.52,9.83-13.9,14.93-2.45,2.85-4.98,5.79-7.51,8.52-.6,.64-.56,1.64,.08,2.24Z"/><path class="b" d="M312.48,290.19c-1.72,1.28-3.81,1.99-6.02,2.74-2.7,.92-5.49,1.87-7.8,3.95-.65,.59-.7,1.59-.11,2.24,.31,.35,.74,.52,1.18,.52,.38,0,.76-.13,1.06-.41,1.82-1.64,4.19-2.45,6.7-3.3,2.35-.8,4.78-1.62,6.9-3.21,.7-.53,.84-1.52,.32-2.22-.53-.7-1.52-.85-2.22-.32Z"/><path class="b" d="M334.26,302.06c-2.22,0-4.66-.1-7.25-.19-8.66-.31-18.47-.67-25.76,1.8-.83,.28-1.28,1.18-.99,2.01,.22,.66,.84,1.08,1.5,1.08,.17,0,.34-.03,.51-.08,6.74-2.28,16.24-1.93,24.63-1.63,2.61,.09,5.08,.18,7.35,.19h0c.87,0,1.58-.71,1.59-1.58,0-.88-.71-1.59-1.58-1.59Z"/><path class="b" d="M309.13,315.38c4.37-.02,8.89-.04,12.9,1.43,.18,.07,.37,.1,.55,.1,.65,0,1.25-.4,1.49-1.04,.3-.82-.12-1.73-.94-2.04-4.54-1.66-9.36-1.64-14.01-1.62-.49,0-.98,0-1.46,0-.1,0-.17,.02-.31,0-.88,0-1.58,.71-1.59,1.58,0,.88,.71,1.59,1.58,1.59,.59,0,1.19,0,1.79,0Z"/><path class="b" d="M329.88,329.13c-10.54-5.18-20.02-8.98-28.2-11.27-.84-.24-1.72,.25-1.96,1.1-.24,.84,.25,1.72,1.1,1.96,7.98,2.24,17.29,5.97,27.65,11.07,.23,.11,.46,.16,.7,.16,.59,0,1.15-.32,1.42-.88,.39-.79,.06-1.74-.72-2.13Z"/><path class="b" d="M307.55,332.18c-1.43-.72-2.87-1.57-4.25-2.4-1.91-1.14-3.88-2.32-5.99-3.23-.81-.34-1.74,.03-2.08,.83-.35,.8,.03,1.74,.83,2.08,1.91,.82,3.71,1.89,5.61,3.03,1.44,.86,2.92,1.74,4.46,2.51,.23,.12,.47,.17,.71,.17,.58,0,1.14-.32,1.42-.88,.39-.79,.07-1.74-.71-2.13Z"/><path class="b" d="M291.81,331.07c-.56-.67-1.56-.77-2.23-.21-.13,.11-.24,.24-.33,.38v1.68c.04,.06,.07,.12,.12,.17,4.79,5.79,8.34,14.46,10.9,21.37,.24,.64,.84,1.03,1.49,1.03,.18,0,.37-.03,.55-.1,.82-.3,1.24-1.22,.94-2.04-2.65-7.15-6.34-16.14-11.43-22.29Z"/></g><g><path class="b" d="M398.77,125.31c3.92-2.84,6.73-7.11,8-11.59,1.87-6.62,.76-15.66-8-20.4v-.23c-.51-.27-1.04-.53-1.61-.78-4.74-2.01-10.97-2.23-16.76-.6h-.03c-3.05,0-5.89,1.1-8.29,3.23-4.61,4.11-6.62,11.11-6.56,16.24,.16,14.27,15.2,16.53,20.14,17.26,.96,.14,1.89,.21,2.8,.21,3.92,0,7.41-1.28,10.31-3.33v-.02Zm-12.64,0c-11.81-1.77-17.35-6.27-17.44-14.16-.05-4.4,1.63-10.39,5.5-13.83,1.67-1.49,3.55-2.29,5.62-2.41,.3,.1,.63,.11,.96,.01,.02,0,.03,0,.05-.02,.27,.01,.54,.04,.81,.07,.6,.08,1.16-.19,1.49-.64,4.52-.91,9.26-.59,12.81,.91,.99,.42,1.87,.9,2.66,1.42v.23c5.9,3.99,6.63,10.63,5.13,15.96-.89,3.15-2.67,6.19-5.13,8.5v.05c-3.19,2.92-7.48,4.65-12.46,3.91Z"/><path class="b" d="M393.06,136.47c-.05-.87-.79-1.52-1.67-1.5-.88,.04-1.55,.79-1.5,1.67,.09,1.69,.3,3.33,.51,4.91,.29,2.26,.57,4.4,.51,6.64-.02,.88,.67,1.6,1.55,1.63h.04c.86,0,1.56-.68,1.58-1.55,.06-2.49-.24-4.85-.54-7.13-.21-1.6-.4-3.11-.48-4.67Z"/><path class="b" d="M382.77,133.45c-.87,.04-1.56,.78-1.52,1.65,.17,3.93-1,7.91-2.23,12.11-1.31,4.48-2.67,9.1-2.34,13.82,.06,.84,.75,1.48,1.58,1.48,.04,0,.08,0,.11,0,.87-.06,1.53-.82,1.47-1.69-.29-4.15,.93-8.31,2.22-12.71,1.25-4.27,2.54-8.68,2.35-13.14-.04-.87-.78-1.56-1.65-1.52Z"/><path class="b" d="M373.73,133.8c-1.87,1.5-2.96,3.72-4,5.86-.73,1.49-1.42,2.9-2.33,4.02-.55,.68-.45,1.68,.23,2.23,.29,.24,.65,.36,1,.36,.46,0,.92-.2,1.23-.59,1.14-1.4,1.94-3.04,2.71-4.63,.93-1.91,1.82-3.72,3.14-4.78,.68-.55,.79-1.55,.25-2.23-.55-.68-1.55-.79-2.23-.25Z"/><path class="b" d="M370.72,130.05c.05-.87-.62-1.62-1.5-1.67-3.08-.19-5.25,2.21-6.99,4.12-.49,.54-.95,1.05-1.41,1.48-4.4,4.16-8.86,7.02-14.02,10.34l-.87,.56c-.74,.47-.95,1.46-.48,2.19,.3,.47,.81,.73,1.33,.73,.29,0,.59-.08,.86-.25l.87-.56c5.08-3.26,9.88-6.34,14.49-10.7,.54-.51,1.07-1.09,1.58-1.65,1.48-1.63,2.86-3.15,4.46-3.08,.86,.06,1.62-.62,1.67-1.5Z"/><path class="b" d="M354.82,125.95c-1.58,.64-3.07,1.25-4.64,1.41-.87,.09-1.51,.87-1.42,1.74,.08,.82,.77,1.42,1.58,1.42,.06,0,.11,0,.17,0,2.02-.21,3.79-.93,5.51-1.63,1.98-.81,3.85-1.57,5.88-1.41,.86,.05,1.63-.58,1.71-1.46,.07-.87-.58-1.64-1.46-1.71-2.77-.22-5.09,.72-7.33,1.64Z"/><path class="b" d="M358.91,120.27c.19,.07,.38,.11,.58,.11,.64,0,1.24-.38,1.48-1.01,.32-.82-.09-1.74-.9-2.05-6.6-2.56-18.95-3.07-25.42-1.05-.84,.26-1.3,1.15-1.04,1.99,.26,.84,1.15,1.3,1.99,1.04,5.82-1.82,17.37-1.34,23.32,.98Z"/><path class="b" d="M357.1,106.61c-3.4-1.92-6.92-3.9-11.24-4.13-.87-.02-1.62,.63-1.67,1.5-.05,.87,.63,1.62,1.5,1.67,3.58,.19,6.62,1.91,9.84,3.73l1.15,.64c.24,.14,.51,.2,.77,.2,.56,0,1.1-.29,1.39-.82,.43-.77,.15-1.73-.61-2.16l-1.13-.63Z"/><path class="b" d="M338.34,81.55c7.43,4.67,17.78,11.69,21.8,18.74,.29,.51,.83,.8,1.38,.8,.27,0,.54-.07,.79-.21,.76-.43,1.02-1.4,.59-2.17-4.38-7.66-15.15-15-22.87-19.85-.74-.47-1.72-.24-2.19,.5-.46,.74-.24,1.72,.5,2.19Z"/><path class="b" d="M363.01,84.02c1.25,3.06,2.54,6.23,5.06,8.52,.3,.28,.68,.41,1.07,.41,.43,0,.86-.18,1.17-.52,.59-.65,.54-1.65-.11-2.24-1.99-1.81-3.14-4.64-4.26-7.37-.31-.76-.62-1.52-.94-2.25-.35-.8-1.29-1.16-2.09-.81-.8,.35-1.16,1.29-.81,2.09,.31,.7,.61,1.43,.91,2.17Z"/><path class="b" d="M377.39,87.57c.29,.52,.83,.82,1.39,.82,.26,0,.53-.06,.77-.2,.77-.43,1.04-1.39,.62-2.16-3.04-5.47-3.67-15.81-4.12-23.36-.08-1.39-.16-2.71-.25-3.91-.07-.87-.83-1.54-1.7-1.47-.87,.07-1.53,.83-1.47,1.7,.09,1.19,.17,2.49,.25,3.87,.5,8.29,1.12,18.61,4.51,24.71Z"/><path class="b" d="M388.43,88h.06c1.22-.04,2.19-1.05,2.15-2.28-.14-5.03,.44-10.08,1-14.95,.18-1.52,.35-3.04,.51-4.56,.12-1.22-.76-2.31-1.98-2.43-1.23-.12-2.3,.76-2.43,1.98-.15,1.5-.33,3-.5,4.5-.58,5.03-1.19,10.24-1.03,15.59,.03,1.2,1.02,2.15,2.21,2.15Z"/><path class="b" d="M400.29,88.19c.7-1.27,1.12-2.6,1.52-3.88,.42-1.33,.81-2.58,1.48-3.66,.46-.74,.24-1.72-.51-2.19-.74-.46-1.72-.24-2.18,.51-.89,1.42-1.36,2.93-1.82,4.39-.07,.22-.13,.43-.2,.64v4.97c.11,.02,.21,.04,.32,.04,.56,0,1.1-.3,1.39-.82Z"/><path class="b" d="M402.9,94.18c.31,.28,.69,.42,1.08,.42,.42,0,.85-.17,1.16-.5,2.58-2.77,5.13-5.74,7.6-8.61,4.32-5.03,8.79-10.23,13.63-14.65,.65-.59,.69-1.59,.1-2.24-.59-.64-1.59-.69-2.24-.1-4.99,4.55-9.52,9.83-13.9,14.93-2.45,2.85-4.98,5.79-7.51,8.52-.6,.64-.56,1.64,.08,2.24Z"/><path class="b" d="M421.82,89.21c-1.72,1.28-3.81,1.99-6.02,2.74-2.7,.92-5.49,1.87-7.8,3.95-.65,.59-.7,1.59-.11,2.24,.31,.35,.74,.52,1.18,.52,.38,0,.76-.13,1.06-.41,1.82-1.64,4.19-2.45,6.69-3.3,2.35-.8,4.78-1.62,6.9-3.21,.7-.52,.84-1.52,.32-2.22-.53-.7-1.52-.85-2.22-.32Z"/><path class="b" d="M443.59,101.07c-2.22,0-4.66-.1-7.25-.19-8.66-.31-18.47-.67-25.76,1.8-.83,.28-1.27,1.18-1,2.01,.22,.66,.84,1.08,1.5,1.08,.17,0,.34-.03,.51-.08,6.74-2.28,16.24-1.93,24.63-1.63,2.61,.09,5.08,.18,7.35,.19h0c.87,0,1.58-.71,1.58-1.58,0-.88-.71-1.59-1.58-1.59Z"/><path class="b" d="M418.46,114.4c4.37-.02,8.9-.04,12.9,1.43,.18,.07,.36,.1,.55,.1,.65,0,1.25-.4,1.49-1.04,.3-.82-.12-1.73-.94-2.04-4.54-1.66-9.36-1.64-14.01-1.62-.49,0-.98,0-1.46,0-.1,0-.17,.03-.31,0-.87,0-1.59,.71-1.59,1.58,0,.88,.71,1.59,1.58,1.59,.59,0,1.19,0,1.79,0Z"/><path class="b" d="M439.21,128.14c-10.54-5.18-20.02-8.98-28.2-11.27-.84-.23-1.72,.26-1.96,1.1-.24,.84,.25,1.72,1.1,1.96,7.98,2.24,17.29,5.97,27.65,11.07,.23,.11,.47,.16,.7,.16,.59,0,1.15-.33,1.43-.89,.38-.79,.06-1.74-.72-2.12Z"/><path class="b" d="M416.88,131.2c-1.43-.72-2.86-1.57-4.25-2.4-1.91-1.14-3.88-2.32-5.99-3.22-.81-.34-1.74,.03-2.08,.83-.34,.81,.03,1.74,.83,2.08,1.91,.82,3.71,1.89,5.61,3.03,1.43,.86,2.92,1.75,4.46,2.51,.23,.11,.47,.17,.71,.17,.58,0,1.14-.32,1.42-.88,.39-.78,.07-1.74-.71-2.13Z"/><path class="b" d="M401.14,130.08c-.56-.67-1.56-.77-2.23-.21-.14,.11-.24,.24-.33,.38v1.68c.04,.06,.07,.12,.11,.17,4.79,5.79,8.34,14.46,10.9,21.37,.24,.64,.84,1.03,1.49,1.03,.18,0,.37-.03,.55-.1,.82-.3,1.24-1.22,.94-2.04-2.65-7.15-6.34-16.14-11.43-22.29Z"/></g></svg>