<?xml version="1.0" encoding="UTF-8"?><svg id="a" xmlns="http://www.w3.org/2000/svg" viewBox="0 0 229.99 150.72"><defs><style>.b{fill:#fff;}.c{fill:rgba(255,255,255,.78);}</style></defs><path class="c" d="M71.07,15.74h8.1c0,22.54-.09,45.08,0,67.53,10.43-9.22,20.49-18.82,30.74-28.22-2.89-2.7-5.78-5.31-8.66-8.01,1.86-1.96,3.73-4.01,5.59-5.96,3.07,2.79,6.15,5.68,9.13,8.48,3.07-2.89,6.15-5.68,9.22-8.48,1.86,2.05,3.63,4.01,5.5,6.05-2.89,2.7-5.78,5.31-8.66,8.01,10.25,9.41,20.4,19,30.74,28.22,.09-22.54,0-45.08,0-67.53h8.2c.09,13.13,0,26.18,.09,39.31,7.36-6.8,14.81-13.69,22.26-20.49,1.86,1.96,3.73,4.01,5.5,5.96-8.48,7.82-16.86,15.65-25.43,23.38-1.12,1.12-2.7,2.24-2.33,4.01-.09,11.55,0,23.1,0,34.75,15.37-13.97,30.55-28.13,45.83-42.29,1.86,1.96,3.73,3.91,5.59,5.78-16.95,16.02-34.28,31.76-51.42,47.6v36.89h-8.2v-56.17c-12.3-11.36-24.5-22.64-36.79-34-11.27,10.34-22.45,20.77-33.81,31.11-1.4,1.4-3.45,2.7-3.07,5.03,0,17.98-.09,35.96,0,53.84h-8.1c.09-12.2,0-24.5,.09-36.7-17.14-15.84-34.37-31.76-51.51-47.6,1.86-2.05,3.73-4.01,5.68-6.05,15.28,14.16,30.37,28.32,45.83,42.2,.09-12.11,.09-24.22,0-36.33-9.32-8.48-18.63-17.14-27.95-25.71,1.77-2.05,3.63-4.01,5.4-5.96,7.64,6.71,14.9,13.79,22.54,20.59,0-12.95,0-26.08-.09-39.22Z"/><path class="c" d="M117.46,91.1c3.54-.09,6.99-.09,10.53-.09v10.53h-10.34c-.09-3.45-.09-6.99-.19-10.43Z"/><path class="c" d="M104.14,91.01h10.53v10.53h-10.53v-10.53Z"/><path class="c" d="M104.14,104.33h10.43v10.53h-10.53c.09-3.54,.09-7.08,.09-10.53Z"/><path class="c" d="M117.56,104.33h10.43v10.53h-10.53c.09-3.54,.09-7.08,.09-10.53Z"/><path class="b" d="M116.25,31.02c-8.48-8.2-8.76-22.82-.28-31.02,8.76,8.1,8.1,22.54,.28,31.02Z"/><path class="b" d="M56.17,12.02c5.5,3.35,10.06,8.66,11.08,15.18,1.21,5.12-.19,10.25-2.14,14.9-4.38-3.07-8.57-6.99-10.15-12.2-2.24-5.78-1.02-12.2,1.21-17.88Z"/><path class="b" d="M87.65,33.91c3.91-5.12,10.25-7.55,16.49-8.29-.47,5.5-1.68,11.18-5.68,15.28-3.91,4.75-9.97,6.71-15.74,7.64,.28-5.12,1.4-10.53,4.94-14.62Z"/><path class="b" d="M60.92,67.07c4.1,5.03,4.84,11.83,4.1,17.98-5.22-1.77-10.53-4.38-13.51-9.22-3.63-4.94-4.1-11.27-3.63-17.14,4.94,1.58,9.97,4.01,13.04,8.38Z"/><path class="b" d="M15.46,75.36c6.15,1.86,10.62,7.08,13.41,12.67-5.31,1.49-11.08,2.24-16.3-.09-5.78-2.05-9.69-7.08-12.58-12.2,4.94-1.49,10.43-2.24,15.46-.37Z"/><path class="b" d="M41.73,95.48c6.15,1.86,10.62,7.08,13.41,12.67-5.31,1.49-11.08,2.24-16.3-.09-5.78-2.05-9.69-7.08-12.58-12.2,5.03-1.49,10.43-2.24,15.46-.37Z"/><path class="b" d="M39.78,45.64c2.05,6.15,.37,12.76-2.52,18.26-4.28-3.45-8.29-7.73-9.41-13.32-1.68-5.87,.09-11.92,2.61-17.33,4.19,3.17,8.01,7.17,9.32,12.39Z"/><path class="b" d="M126.96,25.8c6.15,.56,12.3,2.89,16.21,7.82,3.73,4.1,4.94,9.59,5.31,15-5.5-.93-11.18-2.52-15-6.71-4.47-4.19-6.24-10.25-6.52-16.12Z"/><path class="b" d="M181.74,12.48c1.4,5.96,1.21,12.58-2.14,17.88-2.7,4.84-7.55,7.73-12.48,9.87-.93-5.5-1.21-11.36,1.49-16.39,2.52-5.59,7.73-9.13,13.13-11.36Z"/><path class="b" d="M170.93,68.09c1.12-5.96,5.4-10.62,10.06-14.16,6.05,10.25,2.61,24.5-7.92,30.37-1.96-5.12-3.54-10.71-2.14-16.21Z"/><path class="b" d="M194.4,95.39c5.96-1.21,11.92,.84,16.95,3.82-7.08,9.59-21.61,11.83-31.02,4.47,3.91-3.91,8.48-7.45,14.07-8.29Z"/><path class="b" d="M192.45,49.18c1.12-5.96,5.4-10.62,10.06-14.16,6.05,10.25,2.61,24.5-7.92,30.37-1.96-5.12-3.54-10.71-2.14-16.21Z"/><path class="b" d="M212.85,76.29c5.87-1.58,11.92,.19,17.14,2.98-6.52,9.97-20.96,12.95-30.74,6.05,3.73-4.1,8.1-7.92,13.6-9.04Z"/></svg>