<?xml version="1.0" encoding="UTF-8"?><svg id="a" xmlns="http://www.w3.org/2000/svg" viewBox="0 0 676.02 206.51"><defs><style>.b{fill:#737373;}.c{fill:#0dc85e;}.d{fill:rgba(105,20,14,.78);}</style></defs><path class="d" d="M294.09,15.74h8.1c0,22.54-.09,45.08,0,67.53,10.43-9.22,20.49-18.82,30.74-28.22-2.89-2.7-5.78-5.31-8.66-8.01,1.86-1.96,3.73-4.01,5.59-5.96,3.07,2.79,6.15,5.68,9.13,8.48,3.07-2.89,6.15-5.68,9.22-8.48,1.86,2.05,3.63,4.01,5.5,6.05-2.89,2.7-5.78,5.31-8.66,8.01,10.25,9.41,20.4,19,30.74,28.22,.09-22.54,0-45.08,0-67.53h8.2c.09,13.13,0,26.18,.09,39.31,7.36-6.8,14.81-13.69,22.26-20.49,1.86,1.96,3.73,4.01,5.5,5.96-8.48,7.82-16.86,15.65-25.43,23.38-1.12,1.12-2.7,2.24-2.33,4.01-.09,11.55,0,23.1,0,34.75,15.37-13.97,30.55-28.13,45.83-42.29,1.86,1.96,3.73,3.91,5.59,5.78-16.95,16.02-34.28,31.76-51.42,47.6v36.89h-8.2v-56.17c-12.3-11.36-24.5-22.64-36.79-34-11.27,10.34-22.45,20.77-33.81,31.11-1.4,1.4-3.45,2.7-3.07,5.03,0,17.98-.09,35.96,0,53.84h-8.1c.09-12.2,0-24.5,.09-36.7-17.14-15.84-34.37-31.76-51.51-47.6,1.86-2.05,3.73-4.01,5.68-6.05,15.28,14.16,30.37,28.32,45.83,42.2,.09-12.11,.09-24.22,0-36.33-9.32-8.48-18.63-17.14-27.95-25.71,1.77-2.05,3.63-4.01,5.4-5.96,7.64,6.71,14.9,13.79,22.54,20.59,0-12.95,0-26.08-.09-39.22Z"/><path class="d" d="M340.48,91.1c3.54-.09,6.99-.09,10.53-.09v10.53h-10.34c-.09-3.45-.09-6.99-.19-10.43Z"/><path class="d" d="M327.16,91.01h10.53v10.53h-10.53v-10.53Z"/><path class="d" d="M327.16,104.33h10.43v10.53h-10.53c.09-3.54,.09-7.08,.09-10.53Z"/><path class="d" d="M340.57,104.33h10.43v10.53h-10.53c.09-3.54,.09-7.08,.09-10.53Z"/><path class="c" d="M339.27,31.02c-8.48-8.2-8.76-22.82-.28-31.02,8.76,8.1,8.1,22.54,.28,31.02Z"/><path class="c" d="M279.19,12.02c5.5,3.35,10.06,8.66,11.08,15.18,1.21,5.12-.19,10.25-2.14,14.9-4.38-3.07-8.57-6.99-10.15-12.2-2.24-5.78-1.02-12.2,1.21-17.88Z"/><path class="c" d="M310.67,33.91c3.91-5.12,10.25-7.55,16.49-8.29-.47,5.5-1.68,11.18-5.68,15.28-3.91,4.75-9.97,6.71-15.74,7.64,.28-5.12,1.4-10.53,4.94-14.62Z"/><path class="c" d="M283.94,67.07c4.1,5.03,4.84,11.83,4.1,17.98-5.22-1.77-10.53-4.38-13.51-9.22-3.63-4.94-4.1-11.27-3.63-17.14,4.94,1.58,9.97,4.01,13.04,8.38Z"/><path class="c" d="M238.48,75.36c6.15,1.86,10.62,7.08,13.41,12.67-5.31,1.49-11.08,2.24-16.3-.09-5.78-2.05-9.69-7.08-12.58-12.2,4.94-1.49,10.43-2.24,15.46-.37Z"/><path class="c" d="M264.75,95.48c6.15,1.86,10.62,7.08,13.41,12.67-5.31,1.49-11.08,2.24-16.3-.09-5.78-2.05-9.69-7.08-12.58-12.2,5.03-1.49,10.43-2.24,15.46-.37Z"/><path class="c" d="M262.79,45.64c2.05,6.15,.37,12.76-2.52,18.26-4.28-3.45-8.29-7.73-9.41-13.32-1.68-5.87,.09-11.92,2.61-17.33,4.19,3.17,8.01,7.17,9.32,12.39Z"/><path class="c" d="M349.98,25.8c6.15,.56,12.3,2.89,16.21,7.82,3.73,4.1,4.94,9.59,5.31,15-5.5-.93-11.18-2.52-15-6.71-4.47-4.19-6.24-10.25-6.52-16.12Z"/><path class="c" d="M404.75,12.48c1.4,5.96,1.21,12.58-2.14,17.88-2.7,4.84-7.55,7.73-12.48,9.87-.93-5.5-1.21-11.36,1.49-16.39,2.52-5.59,7.73-9.13,13.13-11.36Z"/><path class="c" d="M393.95,68.09c1.12-5.96,5.4-10.62,10.06-14.16,6.05,10.25,2.61,24.5-7.92,30.37-1.96-5.12-3.54-10.71-2.14-16.21Z"/><path class="c" d="M417.42,95.39c5.96-1.21,11.92,.84,16.95,3.82-7.08,9.59-21.61,11.83-31.02,4.47,3.91-3.91,8.48-7.45,14.07-8.29Z"/><path class="c" d="M415.46,49.18c1.12-5.96,5.4-10.62,10.06-14.16,6.05,10.25,2.61,24.5-7.92,30.37-1.96-5.12-3.54-10.71-2.14-16.21Z"/><path class="c" d="M435.86,76.29c5.87-1.58,11.92,.19,17.14,2.98-6.52,9.97-20.96,12.95-30.74,6.05,3.73-4.1,8.1-7.92,13.6-9.04Z"/><path class="b" d="M125.8,191.23h1.82l-4.01,15h-1.75l-2.97-10.09c-.09-.29-.18-.58-.26-.87-.07-.29-.15-.57-.22-.83-.07-.27-.12-.5-.16-.7-.05-.2-.08-.35-.1-.45h0c-.01,.1-.04,.25-.08,.45-.04,.19-.09,.42-.14,.68-.06,.26-.13,.54-.21,.83-.08,.3-.16,.6-.25,.9h0l-2.89,10.08h-1.75l-3.98-15h1.81l2.41,9.41c.09,.31,.16,.62,.23,.93,.07,.3,.14,.59,.2,.88,.05,.29,.11,.57,.16,.84,.05,.27,.09,.54,.13,.8h0c.03-.27,.08-.54,.13-.83,.06-.29,.12-.59,.18-.89,.07-.3,.14-.6,.22-.91,.08-.31,.16-.62,.25-.93h0l2.7-9.3h1.79l2.81,9.38c.09,.32,.18,.64,.27,.95,.08,.31,.15,.62,.22,.92,.06,.29,.12,.58,.17,.85,.05,.27,.1,.52,.14,.76h0c.05-.33,.1-.68,.17-1.05,.07-.37,.16-.76,.25-1.16,.09-.41,.19-.82,.3-1.25h0l2.41-9.4Zm21,0v15h-1.74v-7.07h-7.88v7.07h-1.74v-15h1.74v6.39h7.88v-6.39h1.74Zm17.93,13.46v1.54h-8.35v-15h8.35v1.54h-6.6v4.85h6.22v1.52h-6.22v5.55h6.6Zm8.78-13.46h4.05c1.23,0,2.25,.15,3.05,.46,.81,.31,1.41,.77,1.8,1.39,.4,.62,.6,1.41,.6,2.38h0c0,.79-.14,1.45-.43,1.98-.29,.53-.66,.96-1.13,1.29-.47,.33-.96,.58-1.49,.76h0l4.11,6.74h-2.03l-3.67-6.26h-3.11v6.26h-1.75v-15Zm3.95,1.51h-2.2v5.75h2.38c1.22,0,2.12-.25,2.7-.74,.57-.5,.86-1.24,.86-2.21h0c0-1.02-.3-1.74-.91-2.16-.61-.43-1.56-.64-2.83-.64Zm22.82,11.95v1.54h-8.35v-15h8.35v1.54h-6.6v4.85h6.22v1.52h-6.22v5.55h6.6Zm28.04,0v1.54h-8.34v-15h8.34v1.54h-6.6v4.85h6.23v1.52h-6.23v5.55h6.6Zm17.41-13.46h1.85l-5.39,15h-1.75l-5.38-15h1.82l3.51,9.88c.14,.39,.27,.77,.38,1.14,.11,.36,.22,.71,.31,1.04,.09,.34,.16,.67,.23,.98h0c.07-.31,.15-.64,.24-.98,.09-.34,.19-.69,.3-1.06,.12-.37,.25-.75,.39-1.15h0l3.49-9.85Zm17.7,13.46v1.54h-8.34v-15h8.34v1.54h-6.6v4.85h6.22v1.52h-6.22v5.55h6.6Zm8.79-13.46h4.05c1.23,0,2.24,.15,3.05,.46,.8,.31,1.4,.77,1.8,1.39,.39,.62,.59,1.41,.59,2.38h0c0,.79-.14,1.45-.43,1.98-.29,.53-.66,.96-1.13,1.29-.46,.33-.95,.58-1.48,.76h0l4.11,6.74h-2.03l-3.67-6.26h-3.12v6.26h-1.74v-15Zm3.94,1.51h-2.2v5.75h2.38c1.22,0,2.12-.25,2.7-.74,.58-.5,.87-1.24,.87-2.21h0c0-1.02-.31-1.74-.92-2.16-.61-.43-1.56-.64-2.83-.64Zm14.33-1.51l3.97,7.52,3.99-7.52h1.88l-5,9.18v5.82h-1.74v-5.74l-5-9.26h1.9Zm30.35,7.48h0c0,1.15-.15,2.2-.44,3.15s-.73,1.76-1.31,2.44c-.57,.68-1.29,1.21-2.15,1.58-.85,.37-1.84,.55-2.97,.55h0c-1.16,0-2.17-.18-3.04-.55-.87-.37-1.58-.9-2.15-1.58-.57-.69-1-1.5-1.29-2.45-.28-.95-.42-2.01-.42-3.16h0c0-1.53,.25-2.88,.76-4.03,.51-1.15,1.27-2.05,2.3-2.7,1.03-.64,2.32-.96,3.87-.96h0c1.49,0,2.74,.32,3.75,.95,1.01,.64,1.78,1.53,2.31,2.68,.52,1.15,.78,2.51,.78,4.08Zm-11.94,0h0c0,1.27,.18,2.37,.55,3.3,.36,.93,.91,1.65,1.66,2.15,.75,.51,1.71,.76,2.86,.76h0c1.16,0,2.11-.25,2.86-.76,.74-.5,1.29-1.22,1.64-2.15,.35-.93,.53-2.03,.53-3.3h0c0-1.93-.4-3.45-1.21-4.54-.81-1.09-2.08-1.63-3.79-1.63h0c-1.16,0-2.12,.25-2.87,.75-.75,.49-1.31,1.2-1.68,2.12s-.55,2.02-.55,3.3Zm32.45-7.48v15h-2.01l-8.17-12.6h-.08c.02,.34,.04,.72,.07,1.15,.03,.43,.05,.88,.07,1.36,.01,.48,.02,.97,.02,1.47h0v8.62h-1.62v-15h2l8.14,12.56h.08c-.02-.24-.04-.58-.06-1.02-.02-.45-.04-.92-.05-1.43-.02-.51-.03-.98-.03-1.42h0v-8.69h1.64Zm17.9,13.46v1.54h-8.35v-15h8.35v1.54h-6.6v4.85h6.22v1.52h-6.22v5.55h6.6Zm31.06-13.46v15h-1.74v-7.07h-7.88v7.07h-1.74v-15h1.74v6.39h7.88v-6.39h1.74Zm20.79,15h-1.81l-1.84-4.76h-6.01l-1.84,4.76h-1.76l5.87-15.06h1.56l5.83,15.06Zm-9.08-6.31h4.91l-1.76-4.73-.2-.6c-.09-.28-.19-.57-.28-.87-.09-.31-.17-.55-.24-.73h0c-.07,.28-.14,.56-.22,.83-.07,.28-.15,.54-.23,.77-.07,.24-.14,.44-.19,.6h0l-1.79,4.73Zm25.07,2.32h0c0,.89-.22,1.64-.66,2.27-.44,.63-1.06,1.1-1.85,1.43s-1.73,.49-2.8,.49h0c-.57,0-1.1-.03-1.61-.08s-.97-.13-1.4-.24c-.42-.1-.79-.23-1.11-.38h0v-1.67c.51,.21,1.13,.41,1.87,.59,.74,.18,1.51,.27,2.32,.27h0c.75,0,1.39-.1,1.91-.3,.52-.2,.91-.49,1.18-.87,.27-.38,.41-.84,.41-1.37h0c0-.51-.11-.94-.34-1.29-.23-.34-.6-.65-1.12-.94-.53-.29-1.24-.59-2.14-.91h0c-.64-.23-1.2-.47-1.68-.74-.49-.27-.89-.58-1.22-.92-.33-.34-.58-.74-.75-1.19-.17-.45-.25-.96-.25-1.55h0c0-.8,.2-1.48,.61-2.05,.41-.57,.97-1.01,1.69-1.31,.72-.31,1.55-.46,2.49-.46h0c.8,0,1.54,.07,2.22,.22,.68,.15,1.3,.36,1.87,.61h0l-.54,1.5c-.54-.23-1.11-.42-1.72-.57-.61-.15-1.23-.22-1.87-.22h0c-.65,0-1.19,.09-1.63,.28-.44,.19-.78,.45-1.01,.79-.23,.35-.35,.75-.35,1.22h0c0,.53,.11,.97,.34,1.32,.22,.35,.57,.65,1.06,.92,.49,.27,1.14,.56,1.95,.85h0c.88,.32,1.63,.66,2.24,1.02,.62,.36,1.09,.8,1.41,1.31,.32,.52,.48,1.18,.48,1.97Zm30.64,3.99h-1.81l-1.84-4.76h-6.01l-1.84,4.76h-1.76l5.86-15.06h1.57l5.83,15.06Zm-9.08-6.31h4.9l-1.75-4.73-.2-.6c-.09-.28-.19-.57-.28-.87-.09-.31-.17-.55-.24-.73h0c-.07,.28-.14,.56-.22,.83-.08,.28-.16,.54-.23,.77-.07,.24-.14,.44-.19,.6h0l-1.79,4.73Zm27.52-8.69h3.92c1.93,0,3.35,.38,4.24,1.14,.89,.75,1.34,1.83,1.34,3.24h0c0,.64-.1,1.24-.31,1.81-.21,.57-.55,1.08-1.01,1.51-.47,.43-1.08,.78-1.83,1.03-.76,.25-1.69,.37-2.78,.37h-1.82v5.9h-1.75v-15Zm3.76,1.49h-2.01v6.11h1.63c.95,0,1.75-.1,2.39-.3,.64-.21,1.12-.54,1.44-1,.32-.47,.48-1.08,.48-1.85h0c0-.99-.32-1.74-.95-2.23-.63-.49-1.63-.73-2.98-.73Zm22.73,13.51h-8.39v-15h1.74v13.44h6.65v1.56Zm19.24,0h-1.81l-1.84-4.76h-6.01l-1.84,4.76h-1.76l5.86-15.06h1.57l5.83,15.06Zm-9.08-6.31h4.9l-1.75-4.73-.2-.6c-.09-.28-.19-.57-.28-.87-.1-.31-.18-.55-.24-.73h0c-.07,.28-.14,.56-.22,.83-.08,.28-.16,.54-.23,.77-.07,.24-.14,.44-.19,.6h0l-1.79,4.73Zm23.02-7.36h0c-.83,0-1.57,.14-2.23,.42-.66,.29-1.22,.7-1.69,1.23-.46,.54-.81,1.19-1.06,1.95-.25,.75-.37,1.61-.37,2.56h0c0,1.26,.2,2.35,.59,3.28,.39,.93,.98,1.64,1.77,2.14,.78,.51,1.76,.76,2.93,.76h0c.67,0,1.31-.06,1.9-.17,.59-.11,1.16-.25,1.72-.42h0v1.52c-.55,.2-1.12,.35-1.72,.45-.6,.1-1.31,.15-2.14,.15h0c-1.53,0-2.8-.32-3.82-.95s-1.79-1.53-2.3-2.68c-.51-1.15-.76-2.52-.76-4.09h0c0-1.13,.16-2.17,.47-3.11,.32-.94,.79-1.75,1.4-2.44,.61-.68,1.37-1.21,2.26-1.58,.89-.37,1.91-.56,3.07-.56h0c.75,0,1.48,.07,2.19,.22,.71,.15,1.34,.37,1.91,.65h0l-.7,1.48c-.48-.22-1-.41-1.57-.57-.57-.16-1.19-.24-1.85-.24Zm20.62,12.13v1.54h-8.35v-15h8.35v1.54h-6.6v4.85h6.22v1.52h-6.22v5.55h6.6Zm8.27,.47h0c0-.48,.12-.82,.35-1.02,.23-.2,.52-.3,.85-.3h0c.35,0,.64,.1,.88,.3,.24,.2,.36,.54,.36,1.02h0c0,.47-.12,.82-.36,1.03-.24,.21-.53,.32-.88,.32h0c-.33,0-.62-.11-.85-.32-.23-.21-.35-.56-.35-1.03Z"/><path d="M3.04,158.38v22.23h14.37v2.85H0v-25.08H3.04Zm25.77,0h3.04v25.08h-3.04v-25.08Zm14.44,0h20.52v2.85h-8.74v22.23h-3.04v-22.23h-8.74v-2.85Zm29.03,0h20.52v2.85h-8.74v22.23h-3.04v-22.23h-8.74v-2.85Zm34.96,0v22.23h14.36v2.85h-17.4v-25.08h3.04Zm43.93,25.08h-18.17v-25.08h17.6v2.85h-14.56v8.09h11.33v2.85h-11.33v8.44h15.13v2.85Zm47.38-25.08h3.27l-9.5,25.08h-3.46l-9.53-25.08h3.26l6.39,17.33,1.59,4.98,1.6-4.94,6.38-17.37Zm14.52,0h3.04v25.08h-3.04v-25.08Zm20.37,0v22.23h14.36v2.85h-17.4v-25.08h3.04Zm28.8,0v22.23h14.37v2.85h-17.41v-25.08h3.04Zm36.03,0l9.72,25.08h-3.23l-2.66-6.95h-11.36l-2.66,6.95h-3.19l9.77-25.08h3.61Zm-1.87,2.93l-4.56,12.35h9.16l-4.6-12.35Zm32.87,22.53h0c-2.38,0-4.44-.53-6.17-1.58-1.73-1.05-3.08-2.53-4.03-4.46-.95-1.93-1.42-4.22-1.42-6.88h0c0-2.66,.5-4.95,1.5-6.88,1-1.93,2.4-3.41,4.2-4.46,1.79-1.05,3.86-1.58,6.19-1.58h0c2.48,0,4.5,.47,6.06,1.41,1.56,.93,2.82,2.38,3.78,4.33h0l-2.77,1.52c-.56-1.45-1.44-2.54-2.64-3.29-1.21-.75-2.68-1.12-4.43-1.12h0c-1.7,0-3.2,.4-4.5,1.2-1.31,.79-2.33,1.94-3.08,3.45-.75,1.51-1.12,3.32-1.12,5.42h0c0,2.1,.32,3.9,.97,5.41,.65,1.51,1.61,2.67,2.88,3.46,1.28,.8,2.85,1.2,4.7,1.2h0c1.04,0,2.01-.13,2.9-.4,.9-.27,1.69-.67,2.36-1.2,.67-.53,1.2-1.2,1.58-2.01,.38-.81,.57-1.76,.57-2.85h0v-.87h-7.98v-2.85h10.75v12.65h-2.39l-.15-4.67,.64,.11c-.66,1.57-1.7,2.79-3.11,3.65-1.42,.86-3.18,1.29-5.29,1.29Zm41.65-.38h-18.16v-25.08h17.59v2.85h-14.55v8.09h11.32v2.85h-11.32v8.44h15.12v2.85Zm31.2-25.08h8.85c1.7,0,3.18,.31,4.43,.93,1.25,.62,2.24,1.5,2.95,2.64,.71,1.14,1.06,2.5,1.06,4.07h0c0,1.57-.35,2.92-1.06,4.06-.71,1.14-1.7,2.02-2.95,2.64-1.25,.63-2.73,.94-4.43,.94h-5.81v9.8h-3.04v-25.08Zm3.04,12.43h5.36c1.97,0,3.42-.41,4.33-1.24,.91-.82,1.37-2,1.37-3.55h0c0-1.57-.46-2.76-1.37-3.57-.91-.81-2.36-1.22-4.33-1.22h-5.36v9.58Zm26.22-12.43h9.5c2.56,0,4.61,.66,6.16,1.98,1.54,1.31,2.31,3.1,2.31,5.35h0c0,2.26-.78,4.02-2.33,5.27-1.56,1.25-3.62,1.88-6.18,1.88h0l-.26,.19h-6.16v10.41h-3.04v-25.08Zm3.04,11.82h6.42c1.8,0,3.14-.37,4.01-1.12,.87-.75,1.31-1.87,1.31-3.37h0c0-1.49-.44-2.61-1.31-3.36-.87-.75-2.21-1.12-4.01-1.12h-6.42v8.97Zm5.62,2.28l2.55-1.67,8.28,12.65h-3.61l-7.22-10.98Zm40.85,10.98h-18.16v-25.08h17.59v2.85h-14.55v8.09h11.32v2.85h-11.32v8.44h15.12v2.85Zm20.22-25.46h0c2.21,0,4.11,.45,5.7,1.35,1.59,.9,2.92,2.22,3.99,3.97h0l-2.55,1.98c-.93-1.63-1.99-2.77-3.17-3.44-1.18-.67-2.6-1.01-4.27-1.01h0c-1.35,0-2.46,.19-3.33,.57-.87,.38-1.51,.88-1.92,1.5-.41,.62-.61,1.32-.61,2.11h0c0,.89,.28,1.67,.84,2.34,.56,.67,1.67,1.19,3.34,1.57h0l5.44,1.22c2.41,.53,4.08,1.34,5.03,2.41,.95,1.08,1.43,2.42,1.43,4.01h0c0,1.42-.4,2.68-1.2,3.78-.8,1.11-1.92,1.96-3.36,2.57-1.45,.61-3.14,.91-5.09,.91h0c-1.83,0-3.43-.25-4.81-.74s-2.56-1.16-3.55-2c-.99-.83-1.81-1.77-2.44-2.81h0l2.66-2.16c.49,.96,1.11,1.81,1.87,2.54s1.68,1.3,2.75,1.71c1.08,.41,2.32,.61,3.71,.61h0c1.29,0,2.41-.16,3.36-.48,.95-.31,1.67-.78,2.18-1.4,.51-.62,.76-1.37,.76-2.26h0c0-.81-.26-1.54-.79-2.19-.53-.65-1.54-1.13-3.01-1.46h0l-5.89-1.33c-1.54-.35-2.79-.84-3.74-1.46-.95-.62-1.63-1.36-2.05-2.21-.42-.85-.63-1.76-.63-2.75h0c0-1.35,.37-2.58,1.12-3.71,.75-1.13,1.82-2.03,3.23-2.71,1.41-.69,3.07-1.03,5-1.03Zm39.56,17.9l3.04,1.14c-.53,1.42-1.29,2.64-2.28,3.66-.99,1.03-2.15,1.81-3.48,2.34-1.33,.53-2.78,.8-4.35,.8h0c-2.38,0-4.44-.53-6.18-1.58-1.73-1.05-3.07-2.53-4.02-4.46-.95-1.93-1.43-4.22-1.43-6.88h0c0-2.66,.48-4.95,1.43-6.88,.95-1.93,2.29-3.41,4.02-4.46,1.74-1.05,3.77-1.58,6.1-1.58h0c1.63,0,3.07,.22,4.34,.66,1.27,.45,2.35,1.11,3.24,1.98,.9,.87,1.62,1.94,2.15,3.21h0l-3,1.41c-.56-1.45-1.36-2.54-2.41-3.29-1.05-.75-2.42-1.12-4.09-1.12h0c-1.69,0-3.19,.4-4.48,1.2-1.29,.79-2.3,1.94-3.02,3.44-.73,1.49-1.09,3.3-1.09,5.43h0c0,2.1,.34,3.9,1.03,5.41,.69,1.51,1.66,2.67,2.93,3.46,1.27,.8,2.76,1.2,4.48,1.2h0c1.67,0,3.13-.42,4.37-1.27,1.24-.85,2.14-2.13,2.7-3.82h0Zm31.61-17.52h3.04v25.08h-3.04v-25.08Zm-16.64,0h3.04v25.08h-3.04v-25.08Zm1.6,10.94h16.45v2.85h-16.45v-2.85Zm42.48-11.32h0c2.38,0,4.44,.53,6.18,1.58,1.73,1.05,3.07,2.53,4.02,4.46,.95,1.93,1.43,4.22,1.43,6.88h0c0,2.66-.48,4.95-1.43,6.88-.95,1.93-2.29,3.41-4.02,4.46-1.74,1.05-3.8,1.58-6.18,1.58h0c-2.38,0-4.44-.53-6.17-1.58-1.74-1.05-3.08-2.53-4.03-4.46-.95-1.93-1.43-4.22-1.43-6.88h0c0-2.66,.48-4.95,1.43-6.88,.95-1.93,2.29-3.41,4.03-4.46,1.73-1.05,3.79-1.58,6.17-1.58Zm0,2.85h0c-1.72,0-3.21,.4-4.48,1.2-1.27,.79-2.24,1.94-2.93,3.45-.69,1.51-1.03,3.32-1.03,5.42h0c0,2.1,.34,3.9,1.03,5.41,.69,1.51,1.66,2.67,2.93,3.46,1.27,.8,2.76,1.2,4.48,1.2h0c1.75,0,3.25-.4,4.5-1.2,1.25-.79,2.22-1.95,2.91-3.46,.69-1.51,1.03-3.31,1.03-5.41h0c0-2.1-.34-3.91-1.03-5.42-.69-1.51-1.66-2.66-2.91-3.45-1.25-.8-2.75-1.2-4.5-1.2Zm34.5-2.85h0c2.39,0,4.45,.53,6.18,1.58,1.73,1.05,3.08,2.53,4.03,4.46,.95,1.93,1.42,4.22,1.42,6.88h0c0,2.66-.47,4.95-1.42,6.88-.95,1.93-2.3,3.41-4.03,4.46-1.73,1.05-3.79,1.58-6.18,1.58h0c-2.38,0-4.44-.53-6.17-1.58-1.73-1.05-3.08-2.53-4.03-4.46-.95-1.93-1.42-4.22-1.42-6.88h0c0-2.66,.47-4.95,1.42-6.88,.95-1.93,2.3-3.41,4.03-4.46,1.73-1.05,3.79-1.58,6.17-1.58Zm0,2.85h0c-1.72,0-3.21,.4-4.48,1.2-1.27,.79-2.24,1.94-2.93,3.45-.68,1.51-1.02,3.32-1.02,5.42h0c0,2.1,.34,3.9,1.02,5.41,.69,1.51,1.66,2.67,2.93,3.46,1.27,.8,2.76,1.2,4.48,1.2h0c1.75,0,3.26-.4,4.51-1.2,1.25-.79,2.22-1.95,2.9-3.46,.69-1.51,1.03-3.31,1.03-5.41h0c0-2.1-.34-3.91-1.03-5.42-.68-1.51-1.65-2.66-2.9-3.45-1.25-.8-2.76-1.2-4.51-1.2Zm27.44-2.47v22.23h14.36v2.85h-17.4v-25.08h3.04Z"/></svg>